<?xml version="1.0" encoding="UTF-8" standalone="no"?><!DOCTYPE svg PUBLIC "-//W3C//DTD SVG 1.1//EN" "http://www.w3.org/Graphics/SVG/1.1/DTD/svg11.dtd"><svg width="100%" height="100%" viewBox="0 0 649 421" version="1.1" xmlns="http://www.w3.org/2000/svg" xmlns:xlink="http://www.w3.org/1999/xlink" xml:space="preserve" xmlns:serif="http://www.serif.com/" style="fill-rule:evenodd;clip-rule:evenodd;stroke-miterlimit:2;"><g><path d="M181.746,357.097l-0.616,-2.814c-2.331,0.791 -4.398,1.187 -6.2,1.187c-1.891,0 -3.342,-0.44 -4.354,-1.363c-1.011,-0.924 -1.539,-2.287 -1.539,-4.134l0,-14.423c0,-2.067 0.616,-3.518 1.847,-4.353c1.187,-0.836 2.595,-1.232 4.222,-1.232c1.495,-0 3.034,0.308 4.617,0.879l0.923,-2.506c-1.847,-0.967 -3.914,-1.451 -6.2,-1.451c-1.891,0 -3.474,0.351 -4.75,1.1c-1.274,0.792 -2.242,1.759 -2.857,2.902c-0.659,1.143 -0.967,2.814 -0.967,5.057l-0,14.115c-0,2.946 0.791,5.101 2.373,6.464c1.584,1.363 3.651,2.023 6.201,2.023c2.243,-0 4.705,-0.484 7.3,-1.451Z" style="fill:#007ca2;fill-rule:nonzero;"/><path d="M197.883,356.568l-1.187,-2.594c-2.155,1.188 -4.222,1.759 -6.112,1.759c-1.32,0 -2.375,-0.308 -3.122,-0.924c-0.749,-0.614 -1.143,-1.538 -1.143,-2.769l-0,-2.287l12.664,-0.66l0,-6.024c0,-2.33 -0.661,-4.134 -2.024,-5.452c-1.363,-1.276 -3.297,-1.935 -5.716,-1.935c-2.418,0 -4.397,0.659 -5.848,1.978c-1.496,1.32 -2.243,3.167 -2.243,5.542l0,9.014c0,2.154 0.659,3.738 1.935,4.793c1.275,1.098 2.99,1.626 5.144,1.626c1.364,0 2.683,-0.175 4.047,-0.528c1.363,-0.351 2.55,-0.878 3.605,-1.539Zm-2.111,-13.674l-0,3.385l-9.453,0.484l-0,-3.518c-0,-1.539 0.439,-2.682 1.363,-3.473c0.878,-0.792 2.066,-1.188 3.517,-1.188c1.099,0 2.154,0.308 3.122,0.967c0.967,0.66 1.451,1.803 1.451,3.343Z" style="fill:#007ca2;fill-rule:nonzero;"/><path d="M216.131,358.107l3.167,0l-0,-15.213c-0,-1.628 -0.308,-2.947 -0.967,-4.002c-0.661,-1.055 -1.584,-1.847 -2.771,-2.375c-1.143,-0.527 -2.463,-0.792 -4.002,-0.792c-1.055,0 -2.067,0.133 -2.99,0.396c-0.967,0.264 -1.803,0.616 -2.463,1.1l-0.043,-1.143l-2.991,-0l0,22.029l3.167,0l-0,-18.16c0.702,-0.396 1.494,-0.747 2.33,-0.967c0.835,-0.22 1.672,-0.308 2.506,-0.308c1.451,-0 2.683,0.396 3.651,1.143c0.923,0.791 1.406,1.979 1.406,3.562l0,14.73Z" style="fill:#007ca2;fill-rule:nonzero;"/><path d="M229.016,358.68l0.922,-2.463c-1.978,-0.528 -2.989,-1.847 -2.989,-3.914l-0,-13.235l3.869,-0l1.056,-2.99l-4.925,-0l-0,-8.752l-3.21,0l-0,24.977c-0,1.804 0.395,3.21 1.23,4.265c0.837,1.056 2.155,1.759 4.047,2.112Z" style="fill:#007ca2;fill-rule:nonzero;"/><path d="M235.127,358.107l3.167,0l0,-16.313c0,-1.012 0.439,-1.804 1.363,-2.375c0.923,-0.527 2.023,-0.792 3.298,-0.792c0.967,0 1.89,0.177 2.77,0.484l0.791,-2.99c-1.363,-0.308 -2.506,-0.439 -3.43,-0.439c-1.89,0 -3.516,0.527 -4.88,1.539l0,-1.143l-3.079,-0l0,22.029Z" style="fill:#007ca2;fill-rule:nonzero;"/><path d="M264.941,350.017l0,-5.805c0,-2.681 -0.704,-4.793 -2.155,-6.332c-1.451,-1.539 -3.43,-2.286 -5.981,-2.286c-2.681,0 -4.704,0.747 -6.111,2.198c-1.451,1.496 -2.155,3.651 -2.155,6.42l-0,5.805c-0,2.419 0.704,4.441 2.11,6.068c1.363,1.628 3.43,2.463 6.156,2.463c2.727,-0 4.749,-0.792 6.114,-2.419c1.363,-1.626 2.022,-3.65 2.022,-6.112Zm-3.167,-5.805l0,6.245c0,1.583 -0.439,2.814 -1.318,3.738c-0.88,0.922 -2.112,1.406 -3.651,1.406c-1.538,0 -2.769,-0.484 -3.693,-1.406c-0.923,-0.924 -1.407,-2.155 -1.407,-3.738l0,-6.245c0,-1.979 0.484,-3.385 1.407,-4.265c0.924,-0.879 2.155,-1.32 3.693,-1.32c3.298,0 4.969,1.848 4.969,5.585Z" style="fill:#007ca2;fill-rule:nonzero;"/><path d="M282.361,342.894l-0,8.31c-0,1.495 0.308,2.77 0.924,3.782c0.616,1.011 1.451,1.803 2.506,2.331c0.924,0.484 1.891,0.79 2.859,1.01c0.922,0.221 1.934,0.308 3.034,0.308c1.098,0 2.594,-0.087 4.485,-0.308l2.419,-0.22l-0,-30.781l-3.167,0l-0,9.631c-0.572,-0.395 -1.319,-0.703 -2.243,-0.924c-0.923,-0.22 -1.847,-0.308 -2.857,-0.308c-1.628,0 -3.035,0.265 -4.222,0.837c-2.506,1.143 -3.738,3.253 -3.738,6.332Zm13.06,-2.904l-0,15.348c-1.363,0.22 -2.594,0.351 -3.694,0.351c-1.89,-0 -3.385,-0.351 -4.528,-1.055c-1.145,-0.66 -1.716,-1.759 -1.716,-3.298l-0,-7.828c-0,-1.669 0.484,-2.902 1.408,-3.649c0.922,-0.748 2.154,-1.143 3.649,-1.143c0.836,0 1.671,0.131 2.55,0.352c0.837,0.22 1.628,0.528 2.331,0.922Z" style="fill:#007ca2;fill-rule:nonzero;"/><path d="M316.219,356.568l-1.186,-2.594c-2.155,1.188 -4.222,1.759 -6.113,1.759c-1.319,0 -2.374,-0.308 -3.122,-0.924c-0.747,-0.614 -1.143,-1.538 -1.143,-2.769l-0,-2.287l12.664,-0.66l-0,-6.024c-0,-2.33 -0.659,-4.134 -2.022,-5.452c-1.364,-1.276 -3.298,-1.935 -5.716,-1.935c-2.42,0 -4.398,0.659 -5.849,1.978c-1.495,1.32 -2.243,3.167 -2.243,5.542l0,9.014c0,2.154 0.66,3.738 1.935,4.793c1.275,1.098 2.99,1.626 5.145,1.626c1.363,0 2.681,-0.175 4.044,-0.528c1.364,-0.351 2.551,-0.878 3.606,-1.539Zm-2.11,-13.674l0,3.385l-9.454,0.484l-0,-3.518c-0,-1.539 0.44,-2.682 1.363,-3.473c0.879,-0.792 2.067,-1.188 3.518,-1.188c1.1,0 2.155,0.308 3.122,0.967c0.967,0.66 1.451,1.803 1.451,3.343Z" style="fill:#007ca2;fill-rule:nonzero;"/><path d="M334.916,358.107l14.598,0l0,-2.857l-11.433,-0l0,-12.225l6.685,-0l1.01,-3.078l-7.695,0l0,-9.586l11.521,-0l0,-3.035l-14.686,0l-0,30.781Z" style="fill:#007ca2;fill-rule:nonzero;"/><path d="M356.155,352.391l-3.079,0.133c0.044,1.142 0.395,2.198 1.056,3.122c0.615,0.922 1.539,1.671 2.77,2.242c1.187,0.572 2.638,0.88 4.309,0.88c2.594,-0 4.529,-0.616 5.849,-1.847c1.318,-1.188 1.979,-2.726 1.979,-4.53c-0,-1.451 -0.353,-2.594 -1.012,-3.518c-0.704,-0.879 -1.539,-1.582 -2.506,-2.065c-1.012,-0.486 -2.287,-0.969 -3.826,-1.496c-1.583,-0.572 -2.771,-1.055 -3.518,-1.539c-0.792,-0.44 -1.231,-1.056 -1.319,-1.847c-0.132,-1.056 0.219,-1.891 1.011,-2.507c0.792,-0.615 1.891,-0.923 3.254,-0.923c0.748,0 1.407,0.088 1.978,0.22c0.573,0.176 1.057,0.352 1.363,0.527c0.308,0.176 0.485,0.308 0.573,0.353l1.011,-2.771c-0.088,-0.045 -0.351,-0.176 -0.747,-0.396c-0.396,-0.22 -0.968,-0.396 -1.671,-0.616c-0.748,-0.175 -1.584,-0.263 -2.507,-0.263c-1.715,-0 -3.122,0.308 -4.221,0.879c-1.143,0.572 -1.98,1.319 -2.506,2.243c-0.572,0.924 -0.837,1.891 -0.837,2.859l0.045,0.526c0.132,1.188 0.571,2.2 1.231,2.947c0.66,0.747 1.407,1.318 2.287,1.714c0.835,0.396 1.979,0.88 3.43,1.363c1.186,0.396 2.155,0.749 2.857,1.057c0.661,0.307 1.232,0.747 1.716,1.274c0.439,0.528 0.659,1.187 0.659,1.979c0,1.143 -0.44,1.979 -1.363,2.551c-0.924,0.571 -2.022,0.879 -3.21,0.879c-1.32,0 -2.463,-0.308 -3.43,-0.924c-0.967,-0.571 -1.495,-1.406 -1.626,-2.506Z" style="fill:#007ca2;fill-rule:nonzero;"/><path d="M377.218,358.68l0.923,-2.463c-1.98,-0.528 -2.99,-1.847 -2.99,-3.914l-0,-13.235l3.869,-0l1.055,-2.99l-4.924,-0l-0,-8.752l-3.21,0l-0,24.977c-0,1.804 0.396,3.21 1.231,4.265c0.836,1.056 2.154,1.759 4.046,2.112Z" style="fill:#007ca2;fill-rule:nonzero;"/><path d="M395.598,358.107l3.034,0l0,-22.029l-3.166,-0l-0,14.423c-0,3.386 -1.672,5.1 -4.969,5.1c-1.627,0 -2.902,-0.439 -3.782,-1.275c-0.879,-0.835 -1.318,-2.066 -1.318,-3.782l-0,-14.466l-3.167,-0l-0,14.466c-0,5.365 2.771,8.048 8.267,8.048c0.967,0 1.891,-0.177 2.814,-0.573c0.924,-0.351 1.671,-0.879 2.287,-1.538l0,1.626Z" style="fill:#007ca2;fill-rule:nonzero;"/><path d="M403.293,342.894l0,8.31c0,1.495 0.307,2.77 0.923,3.782c0.616,1.011 1.451,1.803 2.506,2.331c0.924,0.484 1.891,0.79 2.859,1.01c0.923,0.221 1.934,0.308 3.034,0.308c1.1,0 2.594,-0.087 4.485,-0.308l2.419,-0.22l-0,-30.781l-3.167,0l-0,9.631c-0.572,-0.395 -1.319,-0.703 -2.243,-0.924c-0.922,-0.22 -1.846,-0.308 -2.857,-0.308c-1.627,0 -3.034,0.265 -4.222,0.837c-2.506,1.143 -3.737,3.253 -3.737,6.332Zm13.059,-2.904l-0,15.348c-1.363,0.22 -2.594,0.351 -3.694,0.351c-1.89,-0 -3.385,-0.351 -4.528,-1.055c-1.143,-0.66 -1.716,-1.759 -1.716,-3.298l0,-7.828c0,-1.669 0.485,-2.902 1.408,-3.649c0.924,-0.748 2.155,-1.143 3.65,-1.143c0.835,0 1.67,0.131 2.549,0.352c0.837,0.22 1.628,0.528 2.331,0.922Z" style="fill:#007ca2;fill-rule:nonzero;"/><path d="M440.45,350.017l-0,-5.805c-0,-2.681 -0.704,-4.793 -2.155,-6.332c-1.451,-1.539 -3.43,-2.286 -5.981,-2.286c-2.682,0 -4.704,0.747 -6.112,2.198c-1.451,1.496 -2.155,3.651 -2.155,6.42l0,5.805c0,2.419 0.704,4.441 2.112,6.068c1.363,1.628 3.429,2.463 6.155,2.463c2.726,-0 4.75,-0.792 6.113,-2.419c1.363,-1.626 2.023,-3.65 2.023,-6.112Zm-3.167,-5.805l-0,6.245c-0,1.583 -0.439,2.814 -1.319,3.738c-0.879,0.922 -2.11,1.406 -3.65,1.406c-1.539,0 -2.77,-0.484 -3.694,-1.406c-0.922,-0.924 -1.406,-2.155 -1.406,-3.738l-0,-6.245c-0,-1.979 0.484,-3.385 1.406,-4.265c0.924,-0.879 2.155,-1.32 3.694,-1.32c3.299,0 4.969,1.848 4.969,5.585Z" style="fill:#007ca2;fill-rule:nonzero;"/><path d="M446.21,352.391l-3.079,0.133c0.045,1.142 0.396,2.198 1.055,3.122c0.616,0.922 1.541,1.671 2.771,2.242c1.188,0.572 2.639,0.88 4.31,0.88c2.594,-0 4.528,-0.616 5.848,-1.847c1.319,-1.188 1.978,-2.726 1.978,-4.53c0,-1.451 -0.351,-2.594 -1.01,-3.518c-0.704,-0.879 -1.539,-1.582 -2.508,-2.065c-1.01,-0.486 -2.286,-0.969 -3.824,-1.496c-1.584,-0.572 -2.771,-1.055 -3.518,-1.539c-0.792,-0.44 -1.233,-1.056 -1.32,-1.847c-0.131,-1.056 0.22,-1.891 1.012,-2.507c0.791,-0.615 1.891,-0.923 3.254,-0.923c0.747,0 1.406,0.088 1.978,0.22c0.571,0.176 1.055,0.352 1.363,0.527c0.308,0.176 0.484,0.308 0.572,0.353l1.011,-2.771c-0.087,-0.045 -0.351,-0.176 -0.747,-0.396c-0.395,-0.22 -0.967,-0.396 -1.671,-0.616c-0.747,-0.175 -1.583,-0.263 -2.506,-0.263c-1.716,-0 -3.122,0.308 -4.222,0.879c-1.143,0.572 -1.979,1.319 -2.506,2.243c-0.571,0.924 -0.836,1.891 -0.836,2.859l0.044,0.526c0.132,1.188 0.572,2.2 1.231,2.947c0.66,0.747 1.408,1.318 2.287,1.714c0.835,0.396 1.978,0.88 3.429,1.363c1.188,0.396 2.155,0.749 2.859,1.057c0.659,0.307 1.231,0.747 1.716,1.274c0.439,0.528 0.659,1.187 0.659,1.979c0,1.143 -0.44,1.979 -1.363,2.551c-0.924,0.571 -2.023,0.879 -3.21,0.879c-1.32,0 -2.463,-0.308 -3.43,-0.924c-0.968,-0.571 -1.496,-1.406 -1.627,-2.506Z" style="fill:#007ca2;fill-rule:nonzero;"/><path d="M476.383,342.894l0,8.31c0,1.495 0.307,2.77 0.923,3.782c0.616,1.011 1.451,1.803 2.506,2.331c0.924,0.484 1.891,0.79 2.859,1.01c0.922,0.221 1.934,0.308 3.034,0.308c1.1,0 2.594,-0.087 4.485,-0.308l2.419,-0.22l-0,-30.781l-3.167,0l-0,9.631c-0.572,-0.395 -1.319,-0.703 -2.243,-0.924c-0.923,-0.22 -1.847,-0.308 -2.857,-0.308c-1.627,0 -3.034,0.265 -4.222,0.837c-2.506,1.143 -3.737,3.253 -3.737,6.332Zm13.059,-2.904l-0,15.348c-1.363,0.22 -2.594,0.351 -3.694,0.351c-1.89,-0 -3.385,-0.351 -4.528,-1.055c-1.143,-0.66 -1.716,-1.759 -1.716,-3.298l-0,-7.828c-0,-1.669 0.485,-2.902 1.408,-3.649c0.924,-0.748 2.155,-1.143 3.65,-1.143c0.835,0 1.67,0.131 2.549,0.352c0.837,0.22 1.628,0.528 2.331,0.922Z" style="fill:#007ca2;fill-rule:nonzero;"/><path d="M510.242,356.568l-1.188,-2.594c-2.155,1.188 -4.222,1.759 -6.112,1.759c-1.32,0 -2.375,-0.308 -3.122,-0.924c-0.748,-0.614 -1.144,-1.538 -1.144,-2.769l-0,-2.287l12.664,-0.66l0,-6.024c0,-2.33 -0.659,-4.134 -2.022,-5.452c-1.364,-1.276 -3.298,-1.935 -5.716,-1.935c-2.419,0 -4.398,0.659 -5.849,1.978c-1.495,1.32 -2.243,3.167 -2.243,5.542l0,9.014c0,2.154 0.66,3.738 1.935,4.793c1.275,1.098 2.99,1.626 5.145,1.626c1.363,0 2.683,-0.175 4.046,-0.528c1.363,-0.351 2.549,-0.878 3.606,-1.539Zm-2.112,-13.674l0,3.385l-9.454,0.484l-0,-3.518c-0,-1.539 0.44,-2.682 1.363,-3.473c0.879,-0.792 2.067,-1.188 3.518,-1.188c1.1,0 2.155,0.308 3.122,0.967c0.967,0.66 1.451,1.803 1.451,3.343Z" style="fill:#007ca2;fill-rule:nonzero;"/><path d="M543.8,358.107l2.637,0l0,-13.191l-6.903,0l1.055,3.078l2.771,-0l-0,1.934c-0,1.716 -0.528,3.079 -1.584,4.046c-1.098,0.968 -2.461,1.451 -4.177,1.451c-1.802,0 -3.298,-0.483 -4.397,-1.451c-1.099,-0.924 -1.671,-2.287 -1.671,-4.089l-0,-14.291c-0,-3.738 2.067,-5.629 6.156,-5.629c1.451,-0 2.947,0.308 4.53,0.879l0.923,-2.461c-1.847,-0.968 -3.914,-1.451 -6.2,-1.451c-1.891,-0 -3.473,0.351 -4.749,1.098c-1.232,0.749 -2.155,1.759 -2.814,2.991c-0.661,1.274 -1.012,2.902 -1.012,4.969l0,13.807c0,1.978 0.439,3.606 1.319,4.925c0.836,1.32 1.979,2.287 3.387,2.902c1.406,0.616 2.945,0.924 4.573,0.924c2.33,-0 4.22,-0.616 5.628,-1.804l0.528,1.363Z" style="fill:#007ca2;fill-rule:nonzero;"/><path d="M564.95,356.568l-1.188,-2.594c-2.154,1.188 -4.221,1.759 -6.111,1.759c-1.32,0 -2.375,-0.308 -3.123,-0.924c-0.747,-0.614 -1.142,-1.538 -1.142,-2.769l-0,-2.287l12.664,-0.66l-0,-6.024c-0,-2.33 -0.661,-4.134 -2.024,-5.452c-1.363,-1.276 -3.298,-1.935 -5.716,-1.935c-2.418,0 -4.398,0.659 -5.849,1.978c-1.495,1.32 -2.242,3.167 -2.242,5.542l-0,9.014c-0,2.154 0.659,3.738 1.934,4.793c1.276,1.098 2.992,1.626 5.145,1.626c1.363,0 2.683,-0.175 4.046,-0.528c1.363,-0.351 2.551,-0.878 3.606,-1.539Zm-2.11,-13.674l-0,3.385l-9.454,0.484l-0,-3.518c-0,-1.539 0.439,-2.682 1.363,-3.473c0.879,-0.792 2.065,-1.188 3.516,-1.188c1.1,0 2.155,0.308 3.122,0.967c0.969,0.66 1.453,1.803 1.453,3.343Z" style="fill:#007ca2;fill-rule:nonzero;"/><path d="M571.985,352.391l-3.078,0.133c0.045,1.142 0.396,2.198 1.055,3.122c0.616,0.922 1.539,1.671 2.771,2.242c1.188,0.572 2.639,0.88 4.31,0.88c2.594,-0 4.528,-0.616 5.848,-1.847c1.319,-1.188 1.978,-2.726 1.978,-4.53c0,-1.451 -0.351,-2.594 -1.011,-3.518c-0.703,-0.879 -1.54,-1.582 -2.507,-2.065c-1.011,-0.486 -2.286,-0.969 -3.825,-1.496c-1.583,-0.572 -2.771,-1.055 -3.518,-1.539c-0.791,-0.44 -1.232,-1.056 -1.32,-1.847c-0.131,-1.056 0.221,-1.891 1.012,-2.507c0.792,-0.615 1.89,-0.923 3.254,-0.923c0.748,0 1.407,0.088 1.979,0.22c0.571,0.176 1.055,0.352 1.363,0.527c0.308,0.176 0.484,0.308 0.571,0.353l1.012,-2.771c-0.088,-0.045 -0.351,-0.176 -0.747,-0.396c-0.396,-0.22 -0.967,-0.396 -1.671,-0.616c-0.748,-0.175 -1.583,-0.263 -2.507,-0.263c-1.715,-0 -3.121,0.308 -4.221,0.879c-1.143,0.572 -1.979,1.319 -2.506,2.243c-0.573,0.924 -0.836,1.891 -0.836,2.859l0.044,0.526c0.131,1.188 0.572,2.2 1.231,2.947c0.659,0.747 1.408,1.318 2.287,1.714c0.835,0.396 1.978,0.88 3.429,1.363c1.188,0.396 2.155,0.749 2.859,1.057c0.659,0.307 1.231,0.747 1.714,1.274c0.441,0.528 0.661,1.187 0.661,1.979c-0,1.143 -0.441,1.979 -1.363,2.551c-0.924,0.571 -2.024,0.879 -3.21,0.879c-1.32,0 -2.463,-0.308 -3.43,-0.924c-0.968,-0.571 -1.496,-1.406 -1.628,-2.506Z" style="fill:#007ca2;fill-rule:nonzero;"/><path d="M593.048,358.68l0.924,-2.463c-1.979,-0.528 -2.991,-1.847 -2.991,-3.914l-0,-13.235l3.87,-0l1.056,-2.99l-4.926,-0l-0,-8.752l-3.21,0l-0,24.977c-0,1.804 0.396,3.21 1.232,4.265c0.835,1.056 2.155,1.759 4.045,2.112Z" style="fill:#007ca2;fill-rule:nonzero;"/><path d="M615.913,332.076l-1.318,-2.067c-0.923,1.012 -1.935,1.539 -3.034,1.539c-0.44,0 -0.88,-0.088 -1.276,-0.22c-0.396,-0.131 -1.01,-0.307 -1.759,-0.615c-0.747,-0.308 -1.363,-0.571 -1.847,-0.704c-0.483,-0.132 -0.967,-0.22 -1.494,-0.22c-1.451,0 -2.858,0.749 -4.177,2.287l1.274,2.067c1.056,-1.099 2.112,-1.628 3.21,-1.628c0.485,0 0.924,0.088 1.408,0.221c0.483,0.175 1.055,0.395 1.714,0.703c0.748,0.308 1.363,0.572 1.847,0.704c0.485,0.131 0.968,0.219 1.452,0.219c1.407,0 2.726,-0.747 4,-2.286Zm0.924,26.031l0,-13.103c0,-1.935 -0.132,-3.518 -0.439,-4.749c-0.308,-1.232 -1.144,-2.287 -2.462,-3.21c-1.364,-0.879 -3.431,-1.32 -6.245,-1.32l-0.22,2.331c4.134,-0 6.201,1.495 6.201,4.53c-0.836,-0.616 -1.936,-1.143 -3.254,-1.539c-1.32,-0.396 -2.639,-0.572 -3.914,-0.572c-1.407,0 -2.594,0.219 -3.561,0.703c-2.024,1.012 -3.035,2.946 -3.035,5.848l0,3.651c0,2.989 0.923,5.056 2.727,6.199c1.802,1.143 4.265,1.716 7.342,1.716c1.408,0 3.695,-0.177 6.86,-0.485Zm-3.165,-12.664l0,9.982c-1.583,0.221 -2.815,0.308 -3.738,0.308c-4.573,0 -6.86,-1.671 -6.86,-5.013l-0,-3.429c-0,-2.507 1.275,-3.783 3.826,-3.783c1.012,0 2.154,0.177 3.385,0.572c1.232,0.396 2.375,0.879 3.387,1.363Z" style="fill:#007ca2;fill-rule:nonzero;"/><path d="M637.768,350.017l0,-5.805c0,-2.681 -0.703,-4.793 -2.154,-6.332c-1.451,-1.539 -3.431,-2.286 -5.981,-2.286c-2.682,0 -4.706,0.747 -6.112,2.198c-1.451,1.496 -2.155,3.651 -2.155,6.42l0,5.805c0,2.419 0.704,4.441 2.11,6.068c1.363,1.628 3.43,2.463 6.157,2.463c2.726,-0 4.748,-0.792 6.112,-2.419c1.363,-1.626 2.023,-3.65 2.023,-6.112Zm-3.166,-5.805l-0,6.245c-0,1.583 -0.439,2.814 -1.319,3.738c-0.879,0.922 -2.111,1.406 -3.65,1.406c-1.539,0 -2.77,-0.484 -3.694,-1.406c-0.923,-0.924 -1.408,-2.155 -1.408,-3.738l0,-6.245c0,-1.979 0.485,-3.385 1.408,-4.265c0.924,-0.879 2.155,-1.32 3.694,-1.32c3.298,0 4.969,1.848 4.969,5.585Z" style="fill:#007ca2;fill-rule:nonzero;"/><path d="M166.399,395.661l-0,8.31c-0,1.495 0.308,2.77 0.924,3.782c0.614,1.011 1.451,1.803 2.506,2.331c0.924,0.483 1.891,0.79 2.858,1.01c0.923,0.221 1.935,0.308 3.035,0.308c1.098,0 2.594,-0.087 4.485,-0.308l2.418,-0.22l0,-30.781l-3.166,0l-0,9.631c-0.572,-0.395 -1.319,-0.703 -2.243,-0.924c-0.923,-0.22 -1.847,-0.308 -2.857,-0.308c-1.628,0 -3.035,0.265 -4.222,0.837c-2.506,1.142 -3.738,3.253 -3.738,6.332Zm13.06,-2.904l-0,15.348c-1.364,0.22 -2.594,0.351 -3.694,0.351c-1.89,-0 -3.386,-0.351 -4.529,-1.055c-1.144,-0.66 -1.715,-1.759 -1.715,-3.298l-0,-7.828c-0,-1.669 0.483,-2.902 1.407,-3.649c0.923,-0.747 2.155,-1.143 3.649,-1.143c0.837,0 1.672,0.131 2.551,0.352c0.836,0.22 1.627,0.528 2.331,0.922Z" style="fill:#007ca2;fill-rule:nonzero;"/><path d="M203.556,402.784l0,-5.805c0,-2.681 -0.704,-4.793 -2.155,-6.332c-1.451,-1.539 -3.43,-2.286 -5.98,-2.286c-2.682,0 -4.706,0.747 -6.112,2.198c-1.451,1.496 -2.155,3.651 -2.155,6.42l-0,5.805c-0,2.419 0.704,4.441 2.11,6.068c1.363,1.628 3.43,2.463 6.157,2.463c2.726,-0 4.748,-0.792 6.111,-2.419c1.364,-1.626 2.024,-3.65 2.024,-6.112Zm-3.167,-5.805l0,6.244c0,1.584 -0.439,2.815 -1.318,3.739c-0.88,0.922 -2.112,1.406 -3.65,1.406c-1.539,0 -2.77,-0.484 -3.694,-1.406c-0.923,-0.924 -1.406,-2.155 -1.406,-3.739l-0,-6.244c-0,-1.979 0.483,-3.385 1.406,-4.265c0.924,-0.879 2.155,-1.32 3.694,-1.32c3.297,0 4.968,1.848 4.968,5.585Z" style="fill:#007ca2;fill-rule:nonzero;"/><path d="M222.313,410.875l3.166,0l-0,-30.78l-6.069,-0l0,2.901l2.903,0.088l0,27.791Z" style="fill:#007ca2;fill-rule:nonzero;"/><path d="M244.299,410.875l3.166,0l-0,-15.214c-0,-1.627 -0.308,-2.947 -0.968,-4.002c-0.659,-1.055 -1.583,-1.847 -2.771,-2.375c-1.142,-0.527 -2.461,-0.792 -4,-0.792c-1.056,0 -2.067,0.133 -2.991,0.396c-0.967,0.265 -1.802,0.616 -2.463,1.1l-0.043,-1.143l-2.99,-0l0,22.03l3.166,0l-0,-18.161c0.704,-0.396 1.495,-0.747 2.33,-0.967c0.836,-0.22 1.671,-0.308 2.506,-0.308c1.453,-0 2.683,0.396 3.651,1.143c0.924,0.791 1.407,1.979 1.407,3.562l0,14.731Z" style="fill:#007ca2;fill-rule:nonzero;"/><path d="M254.368,405.158l-3.077,0.133c0.043,1.142 0.396,2.198 1.055,3.122c0.616,0.922 1.539,1.671 2.771,2.242c1.186,0.572 2.638,0.88 4.308,0.88c2.595,-0 4.53,-0.616 5.848,-1.847c1.32,-1.188 1.98,-2.726 1.98,-4.53c-0,-1.451 -0.352,-2.594 -1.012,-3.518c-0.703,-0.879 -1.539,-1.582 -2.506,-2.066c-1.011,-0.483 -2.286,-0.967 -3.826,-1.495c-1.582,-0.572 -2.77,-1.055 -3.517,-1.539c-0.792,-0.44 -1.232,-1.055 -1.32,-1.847c-0.132,-1.055 0.22,-1.891 1.012,-2.507c0.792,-0.615 1.89,-0.923 3.253,-0.923c0.749,0 1.408,0.088 1.979,0.22c0.572,0.176 1.056,0.352 1.364,0.527c0.308,0.176 0.483,0.308 0.571,0.353l1.012,-2.771c-0.088,-0.043 -0.353,-0.176 -0.749,-0.396c-0.395,-0.22 -0.967,-0.396 -1.669,-0.615c-0.749,-0.177 -1.584,-0.264 -2.508,-0.264c-1.714,-0 -3.122,0.308 -4.22,0.879c-1.145,0.572 -1.98,1.32 -2.508,2.243c-0.571,0.924 -0.835,1.891 -0.835,2.859l0.044,0.526c0.132,1.188 0.572,2.2 1.232,2.947c0.659,0.747 1.406,1.32 2.286,1.716c0.836,0.395 1.979,0.879 3.43,1.363c1.187,0.396 2.155,0.747 2.858,1.055c0.66,0.308 1.231,0.747 1.715,1.275c0.44,0.527 0.659,1.186 0.659,1.978c0,1.144 -0.439,1.979 -1.363,2.551c-0.923,0.571 -2.022,0.879 -3.21,0.879c-1.319,0 -2.461,-0.308 -3.429,-0.922c-0.967,-0.573 -1.495,-1.408 -1.628,-2.508Z" style="fill:#007ca2;fill-rule:nonzero;"/><path d="M275.432,411.447l0.924,-2.463c-1.98,-0.527 -2.991,-1.847 -2.991,-3.914l-0,-13.235l3.87,-0l1.055,-2.99l-4.925,-0l-0,-8.75l-3.21,-0l-0,24.975c-0,1.804 0.395,3.21 1.232,4.265c0.835,1.057 2.155,1.759 4.045,2.112Z" style="fill:#007ca2;fill-rule:nonzero;"/><path d="M284.139,383.26c0.483,-0 0.879,-0.176 1.23,-0.527c0.352,-0.353 0.529,-0.792 0.529,-1.275c-0,-0.484 -0.177,-0.924 -0.529,-1.276c-0.351,-0.352 -0.747,-0.528 -1.23,-0.528c-0.484,0 -0.924,0.176 -1.276,0.528c-0.396,0.396 -0.571,0.792 -0.571,1.276c-0,0.483 0.175,0.879 0.571,1.23c0.352,0.396 0.792,0.572 1.276,0.572Zm-1.672,27.615l3.166,0l-0,-22.03l-3.166,-0l0,22.03Z" style="fill:#007ca2;fill-rule:nonzero;"/><path d="M296.187,411.447l0.923,-2.463c-1.978,-0.527 -2.99,-1.847 -2.99,-3.914l-0,-13.235l3.869,-0l1.055,-2.99l-4.924,-0l-0,-8.75l-3.21,-0l-0,24.975c-0,1.804 0.396,3.21 1.231,4.267c0.836,1.055 2.154,1.757 4.046,2.11Z" style="fill:#007ca2;fill-rule:nonzero;"/><path d="M314.567,410.875l3.034,0l0,-22.03l-3.166,-0l-0,14.423c-0,3.386 -1.67,5.1 -4.969,5.1c-1.627,0 -2.902,-0.439 -3.782,-1.274c-0.879,-0.836 -1.318,-2.067 -1.318,-3.783l-0,-14.466l-3.167,-0l-0,14.466c-0,5.365 2.771,8.048 8.267,8.048c0.967,0 1.891,-0.175 2.814,-0.571c0.924,-0.353 1.671,-0.88 2.287,-1.54l0,1.627Z" style="fill:#007ca2;fill-rule:nonzero;"/><path d="M326.044,411.447l0.922,-2.463c-1.977,-0.527 -2.989,-1.847 -2.989,-3.914l-0,-13.235l3.869,-0l1.056,-2.99l-4.925,-0l-0,-8.75l-3.21,-0l-0,24.975c-0,1.804 0.396,3.21 1.23,4.267c0.837,1.055 2.155,1.757 4.047,2.11Z" style="fill:#007ca2;fill-rule:nonzero;"/><path d="M349.305,402.784l0,-5.805c0,-2.681 -0.704,-4.792 -2.155,-6.332c-1.451,-1.539 -3.43,-2.286 -5.979,-2.286c-2.683,0 -4.706,0.747 -6.114,2.198c-1.45,1.496 -2.154,3.651 -2.154,6.42l-0,5.805c-0,2.419 0.704,4.441 2.111,6.069c1.363,1.627 3.43,2.462 6.157,2.462c2.726,-0 4.748,-0.792 6.112,-2.419c1.363,-1.626 2.022,-3.649 2.022,-6.112Zm-3.165,-5.805l-0,6.244c-0,1.584 -0.441,2.815 -1.32,3.739c-0.88,0.922 -2.111,1.406 -3.649,1.406c-1.54,0 -2.771,-0.484 -3.695,-1.406c-0.923,-0.924 -1.407,-2.155 -1.407,-3.739l0,-6.244c0,-1.978 0.484,-3.385 1.407,-4.265c0.924,-0.879 2.155,-1.318 3.695,-1.318c3.297,-0 4.969,1.846 4.969,5.583Z" style="fill:#007ca2;fill-rule:nonzero;"/><path d="M367.27,402.828l-3.297,0.22c0.043,1.363 0.483,2.683 1.318,3.957c0.792,1.275 1.979,2.332 3.518,3.122c1.539,0.836 3.387,1.232 5.541,1.232c3.562,0 6.244,-0.836 7.96,-2.463c1.714,-1.626 2.55,-3.826 2.55,-6.507c0,-1.804 -0.44,-3.343 -1.363,-4.574c-0.924,-1.187 -2.067,-2.154 -3.387,-2.858c-1.318,-0.659 -3.034,-1.407 -5.1,-2.155c-1.54,-0.572 -2.771,-1.055 -3.693,-1.494c-0.924,-0.441 -1.671,-0.968 -2.288,-1.628c-0.616,-0.615 -0.922,-1.363 -0.922,-2.243c-0.045,-1.451 0.571,-2.594 1.757,-3.429c1.188,-0.836 2.816,-1.232 4.881,-1.232c1.759,0 3.563,0.396 5.365,1.188l0.968,-2.99c-0.968,-0.484 -1.935,-0.792 -2.858,-1.012c-0.924,-0.22 -2.111,-0.308 -3.562,-0.308c-2.155,0 -4.002,0.353 -5.453,1.055c-1.494,0.749 -2.594,1.671 -3.341,2.816c-0.748,1.186 -1.1,2.418 -1.1,3.693c0,1.627 0.396,2.945 1.231,3.957c0.792,1.055 1.759,1.892 2.947,2.463c1.187,0.615 2.726,1.276 4.617,1.978c1.803,0.661 3.21,1.275 4.221,1.759c1.012,0.528 1.891,1.232 2.595,2.067c0.703,0.88 1.055,1.979 1.055,3.255c0,1.802 -0.659,3.21 -1.979,4.132c-1.363,0.968 -3.078,1.451 -5.145,1.451c-1.363,0 -2.55,-0.263 -3.562,-0.79c-1.011,-0.485 -1.847,-1.188 -2.418,-2.024c-0.615,-0.835 -0.968,-1.714 -1.056,-2.638Z" style="fill:#007ca2;fill-rule:nonzero;"/><path d="M401.525,410.875l3.034,0l0,-22.03l-3.167,-0l0,14.423c0,3.386 -1.669,5.1 -4.968,5.1c-1.627,0 -2.902,-0.439 -3.782,-1.274c-0.879,-0.836 -1.319,-2.067 -1.319,-3.783l0,-14.466l-3.166,-0l-0,14.466c-0,5.365 2.771,8.048 8.267,8.048c0.968,0 1.891,-0.175 2.815,-0.571c0.923,-0.353 1.67,-0.88 2.286,-1.54l-0,1.627Z" style="fill:#007ca2;fill-rule:nonzero;"/><path d="M409.22,420.11l3.165,-0.968l0,-9.586c0.66,0.66 1.408,1.144 2.243,1.407c0.792,0.308 1.804,0.439 2.991,0.439c2.462,0 4.441,-0.702 5.936,-2.154c1.495,-1.407 2.243,-3.429 2.243,-6.112l0,-6.112c0,-2.506 -0.704,-4.573 -2.112,-6.157c-1.451,-1.583 -3.518,-2.373 -6.244,-2.373c-0.967,-0 -1.934,0.175 -2.857,0.527c-0.924,0.351 -1.716,0.836 -2.331,1.495l0.044,-1.671l-3.078,-0l0,31.265Zm13.411,-23.262l0,6.244c0,1.715 -0.439,3.033 -1.363,3.913c-0.923,0.924 -2.11,1.363 -3.649,1.363c-1.671,0 -2.946,-0.439 -3.87,-1.319c-0.923,-0.834 -1.364,-2.11 -1.364,-3.781l0,-6.64c0.045,-1.714 0.572,-3.034 1.584,-3.869c0.967,-0.837 2.198,-1.276 3.65,-1.276c1.451,0 2.637,0.439 3.606,1.276c0.923,0.879 1.406,2.242 1.406,4.089Z" style="fill:#007ca2;fill-rule:nonzero;"/><path d="M443.166,409.337l-1.187,-2.596c-2.155,1.188 -4.222,1.759 -6.112,1.759c-1.32,0 -2.375,-0.308 -3.122,-0.922c-0.747,-0.616 -1.143,-1.54 -1.143,-2.771l-0,-2.286l12.664,-0.661l0,-6.024c0,-2.33 -0.661,-4.132 -2.024,-5.452c-1.363,-1.276 -3.297,-1.935 -5.716,-1.935c-2.418,0 -4.397,0.659 -5.848,1.979c-1.496,1.319 -2.243,3.166 -2.243,5.541l0,9.013c0,2.155 0.659,3.739 1.935,4.794c1.275,1.099 2.991,1.626 5.144,1.626c1.364,0 2.683,-0.175 4.047,-0.527c1.363,-0.352 2.55,-0.879 3.605,-1.538Zm-2.11,-13.676l0,3.385l-9.454,0.484l-0,-3.518c-0,-1.539 0.439,-2.682 1.363,-3.473c0.88,-0.792 2.066,-1.188 3.518,-1.188c1.098,-0 2.154,0.308 3.121,0.967c0.968,0.66 1.452,1.804 1.452,3.343Z" style="fill:#007ca2;fill-rule:nonzero;"/><path d="M448.223,410.875l3.166,0l-0,-16.314c-0,-1.011 0.44,-1.802 1.363,-2.374c0.924,-0.528 2.022,-0.791 3.297,-0.791c0.968,-0 1.892,0.175 2.771,0.483l0.792,-2.991c-1.363,-0.307 -2.506,-0.439 -3.43,-0.439c-1.892,0 -3.518,0.528 -4.881,1.539l-0,-1.143l-3.078,-0l0,22.03Z" style="fill:#007ca2;fill-rule:nonzero;"/><path d="M464.449,383.26c0.483,-0 0.879,-0.176 1.23,-0.527c0.353,-0.353 0.529,-0.792 0.529,-1.275c-0,-0.484 -0.176,-0.924 -0.529,-1.276c-0.351,-0.352 -0.747,-0.528 -1.23,-0.528c-0.484,0 -0.925,0.176 -1.276,0.528c-0.396,0.396 -0.571,0.792 -0.571,1.276c-0,0.483 0.175,0.879 0.571,1.23c0.351,0.396 0.792,0.572 1.276,0.572Zm-1.672,27.615l3.167,0l0,-22.03l-3.167,-0l0,22.03Z" style="fill:#007ca2;fill-rule:nonzero;"/><path d="M489.116,402.784l0,-5.805c0,-2.681 -0.702,-4.792 -2.155,-6.332c-1.451,-1.539 -3.428,-2.286 -5.979,-2.286c-2.683,0 -4.706,0.747 -6.112,2.198c-1.451,1.496 -2.155,3.651 -2.155,6.42l0,5.805c0,2.419 0.704,4.441 2.11,6.069c1.364,1.627 3.431,2.462 6.157,2.462c2.726,-0 4.749,-0.792 6.112,-2.419c1.363,-1.626 2.022,-3.649 2.022,-6.112Zm-3.165,-5.805l-0,6.244c-0,1.584 -0.441,2.815 -1.32,3.739c-0.88,0.922 -2.11,1.406 -3.649,1.406c-1.539,0 -2.771,-0.484 -3.694,-1.406c-0.924,-0.924 -1.407,-2.155 -1.407,-3.739l-0,-6.244c-0,-1.978 0.483,-3.385 1.407,-4.265c0.923,-0.879 2.155,-1.318 3.694,-1.318c3.298,-0 4.969,1.846 4.969,5.583Z" style="fill:#007ca2;fill-rule:nonzero;"/><path d="M492.898,410.875l3.166,0l0,-16.314c0,-1.011 0.439,-1.802 1.364,-2.374c0.922,-0.528 2.022,-0.791 3.297,-0.791c0.968,-0 1.892,0.175 2.771,0.483l0.791,-2.991c-1.364,-0.307 -2.507,-0.439 -3.429,-0.439c-1.892,0 -3.518,0.528 -4.881,1.539l-0,-1.143l-3.079,-0l-0,22.03Z" style="fill:#007ca2;fill-rule:nonzero;"/><path d="M524.099,410.875l3.167,0l-0,-27.791l7.387,0l-0,-2.989l-17.678,-0l0,2.989l7.124,0l-0,27.791Z" style="fill:#007ca2;fill-rule:nonzero;"/><path d="M544.107,387.218l2.33,0l2.77,-3.65c0.22,-0.308 0.353,-0.659 0.353,-1.012c-0,-0.307 -0.088,-0.615 -0.265,-0.879c-0.176,-0.264 -0.439,-0.44 -0.747,-0.572c-0.221,-0.043 -0.439,-0.088 -0.572,-0.088c-0.351,0 -0.659,0.088 -0.967,0.265c-0.308,0.219 -0.572,0.484 -0.747,0.88l-2.155,5.056Zm7.607,22.119l-1.187,-2.596c-2.155,1.188 -4.222,1.759 -6.112,1.759c-1.32,0 -2.375,-0.308 -3.122,-0.922c-0.749,-0.616 -1.144,-1.54 -1.144,-2.771l-0,-2.286l12.664,-0.661l-0,-6.024c-0,-2.33 -0.66,-4.132 -2.023,-5.452c-1.363,-1.276 -3.297,-1.935 -5.716,-1.935c-2.418,0 -4.397,0.659 -5.848,1.979c-1.496,1.319 -2.243,3.166 -2.243,5.541l0,9.013c0,2.155 0.659,3.739 1.935,4.794c1.275,1.099 2.99,1.626 5.144,1.626c1.364,0 2.683,-0.175 4.047,-0.527c1.363,-0.352 2.549,-0.879 3.605,-1.538Zm-2.111,-13.676l-0,3.385l-9.454,0.484l-0,-3.518c-0,-1.539 0.44,-2.682 1.363,-3.473c0.879,-0.792 2.067,-1.188 3.518,-1.188c1.099,-0 2.154,0.308 3.122,0.967c0.967,0.66 1.451,1.804 1.451,3.343Z" style="fill:#007ca2;fill-rule:nonzero;"/><path d="M569.654,410.611l-0.747,-2.814c-1.451,0.395 -2.859,0.571 -4.222,0.571c-1.759,0 -3.21,-0.394 -4.309,-1.186c-1.143,-0.749 -1.715,-2.024 -1.715,-3.738l0,-6.377c0,-1.89 0.528,-3.298 1.539,-4.265c1.012,-0.923 2.33,-1.406 4.002,-1.406c1.319,-0 2.814,0.308 4.485,0.967l0.879,-2.506c-2.022,-0.924 -4.001,-1.408 -5.891,-1.408c-2.42,0 -4.355,0.747 -5.893,2.243c-1.539,1.538 -2.288,3.738 -2.288,6.64l0,5.628c0,2.198 0.396,3.914 1.188,5.101c0.748,1.231 2.024,2.155 3.738,2.727c1.055,0.351 2.375,0.527 3.957,0.527c1.716,-0 3.475,-0.221 5.277,-0.704Z" style="fill:#007ca2;fill-rule:nonzero;"/><path d="M586.188,410.875l3.166,0l0,-15.214c0,-1.627 -0.308,-2.947 -0.967,-4.002c-0.659,-1.055 -1.583,-1.847 -2.771,-2.375c-1.143,-0.527 -2.463,-0.79 -4.002,-0.79c-1.055,-0 -2.067,0.131 -2.989,0.394c-0.968,0.265 -1.804,0.616 -2.463,1.1l-0.043,-1.143l-2.991,-0l-0,22.03l3.166,0l0,-18.161c0.704,-0.396 1.496,-0.747 2.331,-0.967c0.835,-0.22 1.671,-0.308 2.506,-0.308c1.451,-0 2.683,0.396 3.65,1.144c0.923,0.79 1.407,1.978 1.407,3.561l-0,14.731Z" style="fill:#007ca2;fill-rule:nonzero;"/><path d="M597.137,383.26c0.484,-0 0.88,-0.176 1.231,-0.527c0.353,-0.353 0.528,-0.792 0.528,-1.275c0,-0.484 -0.175,-0.924 -0.528,-1.276c-0.351,-0.352 -0.747,-0.528 -1.231,-0.528c-0.483,0 -0.924,0.176 -1.275,0.528c-0.396,0.396 -0.571,0.792 -0.571,1.276c-0,0.483 0.175,0.879 0.571,1.23c0.351,0.396 0.792,0.572 1.275,0.572Zm-1.671,27.615l3.167,0l-0,-22.03l-3.167,-0l0,22.03Z" style="fill:#007ca2;fill-rule:nonzero;"/><path d="M617.277,410.611l-0.748,-2.814c-1.45,0.395 -2.858,0.571 -4.221,0.571c-1.759,0 -3.21,-0.394 -4.31,-1.186c-1.143,-0.749 -1.714,-2.024 -1.714,-3.738l-0,-6.377c-0,-1.89 0.526,-3.298 1.538,-4.265c1.012,-0.923 2.331,-1.406 4.002,-1.406c1.319,-0 2.814,0.308 4.485,0.967l0.88,-2.506c-2.023,-0.924 -4.002,-1.408 -5.893,-1.408c-2.419,0 -4.353,0.747 -5.892,2.243c-1.539,1.538 -2.287,3.738 -2.287,6.64l-0,5.628c-0,2.198 0.396,3.914 1.187,5.101c0.749,1.231 2.023,2.155 3.739,2.727c1.055,0.351 2.373,0.527 3.957,0.527c1.715,-0 3.474,-0.221 5.277,-0.704Z" style="fill:#007ca2;fill-rule:nonzero;"/><path d="M637.768,402.784l0,-5.805c0,-2.681 -0.703,-4.792 -2.154,-6.332c-1.451,-1.539 -3.431,-2.286 -5.981,-2.286c-2.682,0 -4.706,0.747 -6.112,2.198c-1.451,1.496 -2.155,3.651 -2.155,6.42l0,5.805c0,2.419 0.704,4.441 2.11,6.069c1.363,1.627 3.43,2.462 6.157,2.462c2.726,-0 4.748,-0.792 6.112,-2.419c1.363,-1.626 2.023,-3.649 2.023,-6.112Zm-3.166,-5.805l-0,6.244c-0,1.584 -0.439,2.815 -1.319,3.739c-0.879,0.922 -2.111,1.406 -3.65,1.406c-1.539,0 -2.77,-0.484 -3.694,-1.406c-0.924,-0.924 -1.408,-2.155 -1.408,-3.739l0,-6.244c0,-1.978 0.484,-3.385 1.408,-4.265c0.924,-0.879 2.155,-1.318 3.694,-1.318c3.298,-0 4.969,1.846 4.969,5.583Z" style="fill:#007ca2;fill-rule:nonzero;"/><path d="M163.601,297.736l475.705,-0" style="fill:none;stroke:#007ca2;stroke-width:7.91px;"/><path d="M140.414,303.928c-66.716,-33.685 -91.114,-119.332 -48.02,-181.509c37.248,-53.742 112.296,-68.66 167.457,-33.838c3.836,2.422 9.39,6.071 12.707,9.057c7.267,6.538 18.167,-2.908 10.9,-10.173c-25.797,-25.797 -71.935,-38.51 -107.347,-33.562c-72.667,9.548 -127.788,75.811 -121.923,149.343c3.969,49.764 33.999,92.972 78.34,115.36c9.57,4.832 17.48,-9.832 7.886,-14.678Z" style="fill:#f37421;fill-rule:nonzero;"/><path d="M105.87,313.383c-73.487,-54.982 -83.567,-163.532 -16.648,-228.327c65.758,-63.674 177.524,-52.531 227.282,25.185c6.917,8.267 19.27,-0.174 13.059,-8.971c-26.592,-37.658 -58.95,-61.113 -101.151,-70.464c-97.289,-21.558 -193.157,50.006 -200.956,149.112c-4.466,56.761 21.782,111.796 67.114,145.713c8.5,6.359 19.903,-5.811 11.3,-12.248Z" style="fill:#e51e26;fill-rule:nonzero;"/><path d="M140.018,359.762c-102.146,-32.873 -153.693,-151.831 -104.06,-247.874c45.066,-87.208 156.609,-121.015 242.274,-72.737c12.876,7.257 24.708,15.939 35.019,26.067c7.512,7.38 19.873,-3.184 11.875,-11.236c-7.494,-7.545 -11.244,-10.9 -19.983,-17.297c-41.942,-30.698 -96.014,-42.828 -147.103,-33.738c-106.865,19.01 -177.974,127.817 -153.047,233.275c15.647,66.197 65.876,118.785 130.292,139.516c10.229,3.292 14.945,-12.688 4.733,-15.976Z" style="fill:#007ca2;fill-rule:nonzero;"/><path d="M115.057,248.203c-32.428,-46.694 -18.805,-112.689 31.951,-140.088c26.1,-14.09 53.65,-15.791 78.373,-5.36c13.466,5.682 19.986,-9.076 8.397,-13.937c-29.115,-12.213 -60.972,-12.203 -91.47,3.096c-61.678,30.94 -79.742,109.911 -40.815,165.963c6.119,8.81 19.685,-0.86 13.564,-9.674Z" style="fill:#febe34;fill-rule:nonzero;"/><path d="M179.153,261.047c-58.676,-13.156 -74.069,-87.558 -24.43,-122.638c8.77,-6.197 -2.034,-18.896 -10.732,-12.75c-59.257,41.876 -41.119,135.255 29.712,151.138c10.333,2.315 15.93,-13.401 5.45,-15.75Z" style="fill:#00aeef;fill-rule:nonzero;"/><path d="M218.101,160.814c1.624,1.462 3.572,2.274 5.682,2.274c2.273,-0 4.221,-0.812 5.845,-2.274c1.46,-1.623 2.272,-3.571 2.272,-5.681c-0,-2.274 -0.812,-4.222 -2.272,-5.844c-0.163,-0 -0.163,-0 -0.163,-0.164c-10.228,-8.603 -22.241,-12.825 -36.04,-12.825c-15.747,0 -29.06,5.52 -40.261,16.559c-11.04,11.203 -16.559,24.514 -16.559,40.261c0,15.747 5.519,29.06 16.559,40.099c11.201,11.202 24.514,16.721 40.261,16.721c13.799,0 25.812,-4.22 36.04,-12.825l0,-0.162l0.163,-0.162c1.46,-1.46 2.272,-3.409 2.272,-5.682c-0,-2.111 -0.812,-4.059 -2.272,-5.683c-1.624,-1.622 -3.572,-2.434 -5.845,-2.434c-2.11,-0 -4.058,0.812 -5.682,2.434c-0,0 -0,0.164 -0.162,0.164c-6.981,5.357 -15.261,8.117 -24.514,8.117c-11.202,-0 -20.781,-3.897 -28.735,-11.851c-7.955,-7.955 -12.013,-17.533 -12.013,-28.736c-0,-11.201 4.058,-20.779 12.013,-28.734c7.954,-7.955 17.533,-12.013 28.735,-12.013c9.253,0 17.533,2.76 24.514,8.279c0.162,-0 0.162,-0 0.162,0.162Z" style="fill:#007ca2;fill-rule:nonzero;"/><path d="M247.501,241.823c0,2.274 0.812,4.222 2.274,5.683c1.622,1.624 3.571,2.434 5.844,2.434l62.502,0c2.273,0 4.221,-0.81 5.845,-2.434c1.46,-1.461 2.272,-3.409 2.272,-5.683c0,-2.11 -0.812,-4.058 -2.272,-5.682c-1.624,-1.622 -3.572,-2.434 -5.845,-2.434l-54.547,-0l-0,-47.242l23.702,0c2.272,0 4.058,-0.812 5.682,-2.273c1.624,-1.623 2.434,-3.571 2.434,-5.683c0,-2.272 -0.81,-4.22 -2.434,-5.844c-1.624,-1.46 -3.41,-2.272 -5.682,-2.272l-23.702,-0l-0,-18.02l54.547,0c2.273,0 4.221,-0.65 5.845,-2.274c1.46,-1.622 2.272,-3.57 2.272,-5.681c0,-2.273 -0.812,-4.221 -2.272,-5.844c-1.624,-1.462 -3.572,-2.274 -5.845,-2.274l-62.502,0c-2.273,0 -4.222,0.812 -5.844,2.274c-1.462,1.623 -2.274,3.571 -2.274,5.844l0,97.405Z" style="fill:#007ca2;fill-rule:nonzero;"/><path d="M406.206,160.814c1.624,1.462 3.572,2.274 5.682,2.274c2.273,-0 4.221,-0.812 5.845,-2.274c1.46,-1.623 2.272,-3.571 2.272,-5.681c0,-2.274 -0.812,-4.222 -2.272,-5.844c-0.162,-0 -0.162,-0 -0.162,-0.164c-10.229,-8.603 -22.242,-12.825 -36.041,-12.825c-15.747,0 -29.06,5.52 -40.262,16.559c-11.039,11.203 -16.558,24.514 -16.558,40.261c0,15.747 5.519,29.06 16.558,40.099c11.202,11.202 24.515,16.721 40.262,16.721c15.747,0 29.059,-5.519 40.099,-16.721c11.201,-11.039 16.721,-24.026 16.883,-38.961c0,-2.112 -0.812,-4.06 -2.436,-5.683c-1.622,-1.623 -3.57,-2.435 -5.681,-2.435l-31.819,-0c-2.111,-0 -4.059,0.812 -5.683,2.435c-1.622,1.623 -2.272,3.571 -2.272,5.683c-0,2.272 0.65,4.22 2.272,5.681c1.624,1.624 3.572,2.436 5.683,2.436l22.727,-0l0,1.136c0,4.87 -3.732,10.877 -11.039,18.345c-7.954,7.954 -17.533,11.851 -28.734,11.851c-11.202,-0 -20.781,-3.897 -28.735,-11.851c-7.955,-7.955 -12.013,-17.533 -12.013,-28.736c-0,-11.201 4.058,-20.779 12.013,-28.734c7.954,-7.955 17.533,-12.013 28.735,-12.013c9.253,0 17.533,2.76 24.514,8.279c0.162,-0 0.162,-0 0.162,0.162Z" style="fill:#007ca2;fill-rule:nonzero;"/><path d="M463.541,136.3c-2.273,0 -4.221,0.812 -5.845,2.274c-1.461,1.623 -2.272,3.571 -2.272,5.844l-0,97.405c-0,2.274 0.811,4.222 2.272,5.683c1.624,1.624 3.572,2.434 5.845,2.434c2.11,0 4.058,-0.81 5.682,-2.434c1.622,-1.461 2.272,-3.409 2.272,-5.683l0,-97.405c0,-2.273 -0.65,-4.221 -2.272,-5.844c-1.624,-1.462 -3.572,-2.274 -5.682,-2.274Z" style="fill:#00aeef;fill-rule:nonzero;"/><path d="M498.737,238.253c7.792,7.792 17.045,11.687 28.085,11.687c10.877,0 20.292,-3.895 28.085,-11.687c7.63,-7.631 11.526,-17.047 11.526,-27.924c0,-11.039 -3.896,-20.293 -11.526,-28.086c-7.793,-7.63 -17.208,-11.526 -28.085,-11.526c-2.598,-0 -4.708,-0.974 -6.494,-2.759c-1.786,-1.786 -2.598,-3.896 -2.598,-6.332c0,-2.597 0.812,-4.708 2.598,-6.493c1.786,-1.786 3.896,-2.76 6.494,-2.76c2.111,0 4.059,0.649 5.681,2.11l0,-0.162c0.164,0.162 0.326,0.324 0.65,0.649c1.462,1.461 3.41,2.273 5.52,2.273c2.273,0 4.059,-0.812 5.683,-2.273c1.46,-1.623 2.272,-3.409 2.272,-5.681c-0,-2.112 -0.812,-4.06 -2.272,-5.683c-0.326,-0.162 -0.65,-0.487 -0.812,-0.649c-4.709,-4.221 -10.391,-6.331 -16.722,-6.331c-6.98,-0 -12.825,2.434 -17.695,7.305c-4.87,4.87 -7.306,10.714 -7.306,17.695c-0,6.818 2.436,12.663 7.306,17.533c4.87,4.87 10.715,7.306 17.695,7.306c6.493,0 12.176,2.435 16.722,6.981c4.708,4.708 6.98,10.227 6.98,16.883c0,6.494 -2.272,12.175 -6.98,16.721c-4.546,4.709 -10.229,6.981 -16.722,6.981c-6.656,-0 -12.176,-2.272 -16.884,-6.981c-4.545,-4.546 -6.981,-10.227 -6.981,-16.721c0,-2.11 -0.648,-4.058 -2.272,-5.682c-1.624,-1.461 -3.41,-2.272 -5.52,-2.272c-2.273,-0 -4.221,0.811 -5.683,2.272c-1.46,1.624 -2.272,3.572 -2.272,5.682c-0,10.877 3.896,20.293 11.527,27.924Z" style="fill:#00aeef;fill-rule:nonzero;"/><path d="M629.816,152.047c2.274,0 4.222,-0.648 5.683,-2.272c1.624,-1.624 2.436,-3.572 2.436,-5.682c-0,-2.273 -0.812,-4.221 -2.436,-5.845c-1.461,-1.46 -3.409,-2.272 -5.683,-2.272l-62.988,0c-2.272,0 -4.221,0.812 -5.845,2.272c-1.461,1.624 -2.272,3.572 -2.272,5.845c0,2.11 0.811,4.058 2.272,5.682c1.624,1.624 3.573,2.272 5.845,2.272l23.54,0l-0,89.776c-0,2.274 0.811,4.222 2.435,5.683c1.623,1.624 3.409,2.434 5.681,2.434c2.274,0 4.059,-0.81 5.683,-2.434c1.623,-1.461 2.435,-3.409 2.435,-5.683l0,-89.776l23.214,0Z" style="fill:#00aeef;fill-rule:nonzero;"/></g></svg>