<?xml version="1.0" encoding="utf-8"?>
<!-- Generator: Adobe Illustrator 22.1.0, SVG Export Plug-In . SVG Version: 6.00 Build 0)  -->
<svg version="1.1" id="Layer_1" xmlns="http://www.w3.org/2000/svg" xmlns:xlink="http://www.w3.org/1999/xlink" x="0px" y="0px"
	 viewBox="0 0 673 180.7" style="enable-background:new 0 0 673 180.7;" xml:space="preserve">
<style type="text/css">
	.st0{fill:#232C65;}
	.st1{fill:#A1BEE4;}
	.st2{fill:#F57F32;}
	.st3{fill:#E12726;}
</style>
<g>
	<g>
		<path class="st0" d="M349.9,60.7L349.9,60.7c0-11.4,8.5-20.7,20.5-20.7c7.3,0,11.7,2.6,15.5,6.2l-4.5,5.1c-3.1-3-6.6-5-11.1-5
			c-7.6,0-13.1,6.3-13.1,14v0.1c0,7.8,5.5,14.1,13.1,14.1c4.9,0,8-2,11.4-5.1l4.5,4.6c-4.1,4.3-8.7,7-16.1,7
			C358.5,81.1,349.9,72,349.9,60.7z"/>
		<path class="st0" d="M403.5,40.7h29.4V47h-22.5v10.3h19.9v6.3h-19.9v10.7h22.8v6.3h-29.7V40.7z"/>
		<path class="st0" d="M451.4,40.7h17.7c5,0,9,1.4,11.4,4c2.1,2.2,3.3,5.1,3.3,8.6v0.1c0,6.5-3.9,10.5-9.4,12l10.8,15.1H477
			l-9.7-13.8h-8.8v13.8h-7.1V40.7z M468.6,60.4c5,0,8.2-2.6,8.2-6.7v-0.1c0-4.3-3-6.6-8.2-6.6h-10.2v13.3H468.6z"/>
		<path class="st0" d="M502.4,40.7h29.4V47h-22.5v10.3h19.9v6.3h-19.9v10.7h22.8v6.3h-29.7V40.7L502.4,40.7z"/>
		<path class="st0" d="M550.4,40.7h6.5l21.2,27.4V40.7h6.9v39.7h-5.8l-21.9-28.3v28.3h-6.9V40.7z"/>
		<path class="st0" d="M619.1,40.4h6.5l17.4,40h-7.3l-4-9.6h-18.8l-4.1,9.6h-7.1L619.1,40.4z M629.1,64.6l-6.9-15.9l-6.8,15.9H629.1
			z"/>
	</g>
	<g>
		<g>
			<path class="st0" d="M349.9,114L349.9,114c0-5.9,4.4-10.8,10.5-10.8c3.7,0,6,1.3,8.1,3.3l-1.6,1.8c-1.8-1.7-3.7-2.8-6.5-2.8
				c-4.6,0-8,3.7-8,8.5v0.1c0,4.8,3.4,8.6,8,8.6c2.8,0,4.7-1.1,6.7-3l1.6,1.6c-2.2,2.2-4.6,3.6-8.3,3.6
				C354.4,124.6,349.9,119.9,349.9,114z"/>
			<path class="st0" d="M379.4,122.6c2.1,0,3.6-0.8,4.9-2.2l1.5,1.2c-1.6,1.8-3.4,2.9-6.3,2.9c-4.2,0-7.7-3.2-7.7-8
				c0-4.5,3.1-8,7.4-8c4.6,0,7.2,3.6,7.2,8.1c0,0.2,0,0.4,0,0.8H374C374.3,120.7,376.7,122.6,379.4,122.6z M383.8,115.7
				c-0.3-2.8-1.9-5.2-4.9-5.2c-2.6,0-4.7,2.2-5,5.2H383.8z"/>
			<path class="st0" d="M390.8,109h2.3v2.7c1-1.7,2.6-3,5.3-3c3.7,0,5.9,2.5,5.9,6.1v9.5H402v-9c0-2.8-1.6-4.7-4.2-4.7
				c-2.6,0-4.6,2-4.6,4.8v8.8h-2.3V109H390.8z"/>
			<path class="st0" d="M410.4,120.2V111h-2.2v-2h2.2v-4.7h2.3v4.7h4.9v2h-4.9v8.9c0,1.9,1,2.6,2.6,2.6c0.7,0,1.5-0.1,2.2-0.5v2
				c-0.8,0.4-1.7,0.6-2.8,0.6C412.2,124.5,410.4,123.3,410.4,120.2z"/>
			<path class="st0" d="M422.1,109h2.3v4c1.1-2.6,3.3-4.4,6.2-4.2v2.5h-0.2c-3.3,0-6.1,2.4-6.1,7v6.1H422L422.1,109L422.1,109z"/>
			<path class="st0" d="M433.1,116.7L433.1,116.7c0-4.4,3.4-8.1,8-8.1s8,3.6,8,8v0.1c0,4.4-3.4,8-8,8
				C436.5,124.6,433.1,121,433.1,116.7z M446.7,116.7L446.7,116.7c0-3.3-2.5-6-5.7-6c-3.3,0-5.6,2.7-5.6,5.9v0.1
				c0,3.3,2.4,5.9,5.7,5.9C444.4,122.6,446.7,119.9,446.7,116.7z"/>
			<path class="st0" d="M462.3,116.7L462.3,116.7c0-5.1,3.6-8,7.4-8c2.8,0,4.7,1.6,5.9,3.2v-9.2h2.3v21.6h-2.3v-3.1
				c-1.2,1.9-3,3.4-5.9,3.4C465.9,124.5,462.3,121.6,462.3,116.7z M475.6,116.7L475.6,116.7c0-3.6-2.7-5.9-5.5-5.9
				c-3,0-5.4,2.2-5.4,5.9v0.1c0,3.6,2.5,5.9,5.4,5.9C472.9,122.6,475.6,120.2,475.6,116.7z"/>
			<path class="st0" d="M490.2,122.6c2.1,0,3.6-0.8,4.9-2.2l1.5,1.2c-1.6,1.8-3.4,2.9-6.3,2.9c-4.2,0-7.7-3.2-7.7-8
				c0-4.5,3.1-8,7.4-8c4.6,0,7.2,3.6,7.2,8.1c0,0.2,0,0.4,0,0.8h-12.1C485.1,120.7,487.5,122.6,490.2,122.6z M494.6,115.7
				c-0.3-2.8-1.9-5.2-4.9-5.2c-2.6,0-4.7,2.2-5,5.2H494.6z"/>
			<path class="st0" d="M511.4,103.5h8.9c2.6,0,4.6,0.7,5.9,2.1c1,1,1.6,2.5,1.6,4v0.1c0,3.4-2.4,5.5-5.6,6l6.3,8.5h-2.9l-6-8.1
				h-5.9v8.1h-2.3V103.5z M520.1,114.1c3.1,0,5.3-1.6,5.3-4.2v-0.1c0-2.6-2-4-5.3-4h-6.4v8.4H520.1z"/>
			<path class="st0" d="M539.4,122.6c2.1,0,3.6-0.8,4.9-2.2l1.5,1.2c-1.6,1.8-3.4,2.9-6.3,2.9c-4.2,0-7.7-3.2-7.7-8
				c0-4.5,3.1-8,7.4-8c4.6,0,7.2,3.6,7.2,8.1c0,0.2,0,0.4,0,0.8h-12.1C534.4,120.7,536.7,122.6,539.4,122.6z M544,115.7
				c-0.3-2.8-1.9-5.2-4.9-5.2c-2.6,0-4.7,2.2-5,5.2H544z"/>
			<path class="st0" d="M549.9,116.7L549.9,116.7c0-4.4,3.4-8.1,7.9-8.1c2.9,0,4.7,1.2,6.1,2.7l-1.6,1.6c-1.2-1.2-2.6-2.3-4.7-2.3
				c-3.1,0-5.5,2.6-5.5,5.9v0.1c0,3.3,2.4,5.9,5.6,5.9c2,0,3.4-0.9,4.7-2.3l1.5,1.3c-1.6,1.8-3.4,3-6.2,3
				C553.2,124.6,549.9,121,549.9,116.7z"/>
			<path class="st0" d="M568.1,118.4v-9.5h2.3v8.9c0,2.8,1.6,4.7,4.2,4.7c2.6,0,4.6-2,4.6-4.8v-8.8h2.3v15.3h-2.3v-2.7
				c-1,1.7-2.6,3-5.3,3C570.2,124.5,568.1,122,568.1,118.4z"/>
			<path class="st0" d="M587.1,109h2.3v4c1.1-2.6,3.3-4.4,6.2-4.2v2.5h-0.2c-3.3,0-6.1,2.4-6.1,7v6.1h-2.2V109z"/>
			<path class="st0" d="M598.4,122.3l1.1-1.7c1.7,1.2,3.5,2,5.3,2c1.9,0,3.2-0.9,3.2-2.4v-0.1c0-1.6-1.8-2.2-3.8-2.7
				c-2.4-0.7-5.1-1.6-5.1-4.4v-0.1c0-2.6,2.2-4.4,5.2-4.4c1.9,0,3.9,0.6,5.5,1.7l-1,1.8c-1.5-0.9-3-1.5-4.6-1.5c-1.8,0-3,0.9-3,2.2
				v0.1c0,1.5,1.9,2,3.9,2.6c2.4,0.7,4.9,1.7,4.9,4.4v0.1c0,2.9-2.4,4.6-5.5,4.6C602.5,124.5,600.1,123.7,598.4,122.3z"/>
			<path class="st0" d="M614,116.7L614,116.7c0-4.4,3.4-8.1,8-8.1c4.6,0,8,3.6,8,8v0.1c0,4.4-3.4,8-8,8
				C617.4,124.6,614,121,614,116.7z M627.7,116.7L627.7,116.7c0-3.3-2.5-6-5.7-6c-3.3,0-5.6,2.7-5.6,5.9v0.1c0,3.3,2.4,5.9,5.7,5.9
				C625.3,122.6,627.7,119.9,627.7,116.7z"/>
			<path class="st0" d="M633.4,122.3l1.1-1.7c1.7,1.2,3.5,2,5.3,2c1.9,0,3.2-0.9,3.2-2.4v-0.1c0-1.6-1.8-2.2-3.8-2.7
				c-2.4-0.7-5.1-1.6-5.1-4.4v-0.1c0-2.6,2.2-4.4,5.2-4.4c1.9,0,3.9,0.6,5.5,1.7l-1,1.8c-1.5-0.9-3-1.5-4.6-1.5c-1.8,0-3,0.9-3,2.2
				v0.1c0,1.5,1.9,2,3.9,2.6c2.4,0.7,4.9,1.7,4.9,4.4v0.1c0,2.9-2.4,4.6-5.5,4.6C637.5,124.5,635.2,123.7,633.4,122.3z"/>
		</g>
		<g>
			<path class="st0" d="M352.9,139.6h2.2l13.1,16.6v-16.6h2.3v20.7h-1.9l-13.4-17v17h-2.3V139.6z"/>
			<path class="st0" d="M375.3,155.8L375.3,155.8c0-3.3,2.7-5.1,6.5-5.1c2,0,3.3,0.3,4.7,0.6v-0.5c0-2.7-1.7-4.1-4.6-4.1
				c-1.8,0-3.2,0.4-4.7,1.1l-0.7-1.9c1.7-0.7,3.3-1.3,5.6-1.3c2.2,0,3.8,0.6,5,1.7c1,1,1.6,2.6,1.6,4.5v9.3h-2.3v-2.3
				c-1,1.3-2.8,2.6-5.5,2.6C378.2,160.6,375.3,158.9,375.3,155.8z M386.6,154.6v-1.5c-1.1-0.3-2.6-0.6-4.5-0.6
				c-2.8,0-4.5,1.2-4.5,3.1v0.1c0,2,1.8,3,3.8,3C384.3,158.7,386.6,157.1,386.6,154.6z"/>
			<path class="st0" d="M394.9,156.2V147h-2.2v-2h2.2v-4.7h2.3v4.7h4.9v2h-4.9v8.9c0,1.9,1,2.6,2.6,2.6c0.7,0,1.5-0.1,2.2-0.5v2
				c-0.8,0.4-1.7,0.6-2.8,0.6C396.8,160.5,394.9,159.4,394.9,156.2z"/>
			<path class="st0" d="M406.4,154.5V145h2.3v8.9c0,2.8,1.6,4.7,4.2,4.7c2.6,0,4.6-2,4.6-4.8V145h2.3v15.3h-2.3v-2.7
				c-1,1.7-2.6,3-5.3,3C408.6,160.6,406.4,158.1,406.4,154.5z"/>
			<path class="st0" d="M425.5,145h2.3v4c1.1-2.6,3.3-4.4,6.2-4.2v2.5h-0.2c-3.3,0-6.1,2.4-6.1,7v6.1h-2.3L425.5,145L425.5,145z"/>
			<path class="st0" d="M436.2,155.8L436.2,155.8c0-3.3,2.7-5.1,6.5-5.1c2,0,3.3,0.3,4.7,0.6v-0.5c0-2.7-1.7-4.1-4.6-4.1
				c-1.8,0-3.2,0.4-4.7,1.1l-0.7-1.9c1.7-0.7,3.3-1.3,5.6-1.3c2.2,0,3.8,0.6,5,1.7c1,1,1.6,2.6,1.6,4.5v9.3h-2.3v-2.3
				c-1,1.3-2.8,2.6-5.5,2.6C439,160.6,436.2,158.9,436.2,155.8z M447.4,154.6v-1.5c-1.1-0.3-2.6-0.6-4.5-0.6c-2.8,0-4.5,1.2-4.5,3.1
				v0.1c0,2,1.8,3,3.8,3C445.1,158.7,447.4,157.1,447.4,154.6z"/>
			<path class="st0" d="M455,139.1h2.6v2.5H455V139.1z M455.2,145h2.3v15.3h-2.3V145z"/>
			<path class="st0" d="M462.1,158.3l1.1-1.7c1.7,1.2,3.5,2,5.3,2c1.9,0,3.2-0.9,3.2-2.4v-0.1c0-1.6-1.8-2.2-3.8-2.7
				c-2.4-0.7-5.1-1.6-5.1-4.4V149c0-2.6,2.2-4.4,5.2-4.4c1.9,0,3.9,0.6,5.5,1.7l-1,1.8c-1.5-0.9-3-1.5-4.6-1.5c-1.8,0-3,0.9-3,2.2
				v0.1c0,1.5,1.9,2,3.9,2.6c2.4,0.7,4.9,1.7,4.9,4.4v0.1c0,2.9-2.4,4.6-5.5,4.6C466.2,160.6,463.8,159.7,462.1,158.3z"/>
			<path class="st0" d="M494.9,158.6c2.1,0,3.6-0.8,4.9-2.2l1.5,1.2c-1.6,1.8-3.4,2.9-6.3,2.9c-4.2,0-7.7-3.2-7.7-8
				c0-4.5,3.1-8,7.4-8c4.6,0,7.2,3.6,7.2,8.1c0,0.2,0,0.4,0,0.8h-12.1C489.8,156.8,492.2,158.6,494.9,158.6z M499.4,151.7
				c-0.3-2.8-1.9-5.2-4.9-5.2c-2.6,0-4.7,2.2-5,5.2H499.4z"/>
			<path class="st0" d="M523.7,139.4h2.2l9.4,20.8h-2.5l-2.4-5.5h-11.3l-2.5,5.5h-2.4L523.7,139.4z M529.5,152.7l-4.7-10.6
				l-4.8,10.6H529.5z"/>
			<path class="st0" d="M539.7,145h2.3v2.6c1-1.6,2.4-2.9,5-2.9c2.5,0,4,1.3,4.9,3c1.1-1.7,2.7-3,5.4-3c3.5,0,5.7,2.4,5.7,6.1v9.4
				h-2.3v-8.9c0-3-1.5-4.7-3.9-4.7c-2.3,0-4.2,1.8-4.2,4.8v8.8h-2.3v-9c0-2.9-1.6-4.6-3.9-4.6s-4.2,2-4.2,4.9v8.7h-2.3V145
				L539.7,145z"/>
			<path class="st0" d="M570.7,157.3v2.9h-2.3v-21.6h2.3v9.4c1.2-1.9,3-3.4,5.9-3.4c3.6,0,7.4,2.9,7.4,8v0.1c0,5-3.6,8-7.4,8
				C573.7,160.6,571.9,159,570.7,157.3z M581.6,152.6L581.6,152.6c0-3.6-2.5-6-5.4-6c-2.8,0-5.5,2.4-5.5,5.9v0.1
				c0,3.5,2.7,5.9,5.5,5.9C579.1,158.5,581.6,156.4,581.6,152.6z"/>
			<path class="st0" d="M588.7,139.1h2.6v2.5h-2.6V139.1z M588.8,145h2.3v15.3h-2.3V145z"/>
			<path class="st0" d="M603.7,158.6c2.1,0,3.6-0.8,4.9-2.2l1.5,1.2c-1.6,1.8-3.4,2.9-6.3,2.9c-4.2,0-7.7-3.2-7.7-8
				c0-4.5,3.1-8,7.4-8c4.6,0,7.2,3.6,7.2,8.1c0,0.2,0,0.4,0,0.8h-12.1C598.7,156.8,601.1,158.6,603.7,158.6z M608.2,151.7
				c-0.3-2.8-1.9-5.2-4.9-5.2c-2.6,0-4.7,2.2-5,5.2H608.2z"/>
			<path class="st0" d="M615.1,145h2.3v2.7c1-1.7,2.6-3,5.3-3c3.7,0,5.9,2.5,5.9,6.1v9.5h-2.4v-8.9c0-2.8-1.6-4.7-4.2-4.7
				c-2.6,0-4.6,2-4.6,4.8v8.7h-2.3V145z"/>
			<path class="st0" d="M634.7,156.2V147h-2.2v-2h2.2v-4.7h2.3v4.7h4.9v2H637v8.9c0,1.9,1,2.6,2.6,2.6c0.7,0,1.5-0.1,2.2-0.5v2
				c-0.8,0.4-1.7,0.6-2.8,0.6C636.6,160.5,634.7,159.4,634.7,156.2z"/>
			<path class="st0" d="M652.8,158.6c2.1,0,3.6-0.8,4.9-2.2l1.5,1.2c-1.6,1.8-3.4,2.9-6.3,2.9c-4.2,0-7.7-3.2-7.7-8
				c0-4.5,3.1-8,7.4-8c4.6,0,7.2,3.6,7.2,8.1c0,0.2,0,0.4,0,0.8h-12.1C647.7,156.8,650.1,158.6,652.8,158.6z M657.2,151.7
				c-0.3-2.8-1.9-5.2-4.9-5.2c-2.6,0-4.7,2.2-5,5.2H657.2z"/>
		</g>
	</g>
	<g>
		<path class="st1" d="M18,20.4c5.1-2.4,29.8,0.5,45.2-2.1s20.9-12,50.4-6.7c24.1,4.4,35.1,3.7,37,18c0.5,3.4,0,11.6,0.4,32.4
			c0.4,22.3,1.1,57.7-0.4,72.1c-0.9,7.9-6.7,24.1-27.2,27.7c-20.6,3.6-22.2-1.4-44.2,3.5c-15.5,3.5-21.1,6.2-34.5,5.2
			s-29.8-2.6-33.9-26.7c-4.1-24.2,8.2-41.1,5.7-60.2c-2.6-19-4.2-23.1-1.6-40C17.5,26.6,14.6,22,18,20.4z"/>
		<path class="st2" d="M310,157.8c9.3-7.7,8.7-32.9,8.7-32.9c0.8-13.2,0.1-29.3-7.2-44.7c-4.6-9.8-3.2-22.3-1.7-34
			c2.3-17.5-11.8-29.6-21.4-31.8c-14.1-3.1-21.6-0.6-35-2.3c-17.3-2.2-44.7,3.7-58.1,2.9c-14.9-0.8-21.1-3.8-25.2,20.4
			c0,0-5.7,18.1-6.2,34.4c-0.3,11.6,4,20.5,5.7,29.3c3,16.3,1.5,40.2,1.5,40.2c-1,17.1-0.5,22.1,3.1,23.1c3.2,0.9,6.6,0.7,13.3,0.1
			c6.7-0.6,15.5,6.5,25.3,5.5s18.2-5.7,28.7-5.1c10.4,0.5,27.9,3.5,38.7,4.2C299.7,168.2,310,157.8,310,157.8z"/>
		<path class="st0" d="M152.9,51.9c1.9,0,4-1,6.3-2.2c1.1-0.7,2.3-1.4,3.5-2.2c2.4-1.7,5.1-3.5,8-5.4s5.9-3.3,9-4.2
			c1.5-0.5,3.1-0.7,4.7-0.7c0.1,0,0.3,0,0.4,0c3.2,0,6.2,1,9.1,2.5c2.9,1.5,5.9,3.5,8.8,5.5c2.4,1.7,4.7,3.3,7,4.6
			c2.2,1.3,4.3,2.1,6.2,2.1l0,0c1.9,0,4-1,6.3-2.2c1.1-0.7,2.3-1.4,3.5-2.2c2.4-1.7,5.1-3.5,8-5.4c1.2-0.8,2.4-1.5,3.6-2.1l7,9.3
			c-1,0.4-2.1,0.9-3.2,1.5c-2.2,1.3-4.5,2.9-7,4.6c-2.9,2-5.9,3.9-8.8,5.5c-2.9,1.5-5.9,2.5-9.1,2.5h-0.3c-1.6,0-3.2-0.2-4.7-0.7
			c-3.1-0.9-6.1-2.3-9-4.2s-5.6-3.7-8-5.4c-1.2-0.8-2.4-1.5-3.5-2.2c-2.3-1.3-4.5-2.2-6.4-2.2l0,0c-2,0-4,0.9-6.2,2.1
			c-2.2,1.3-4.5,2.9-7,4.6c-2.9,2-5.9,3.9-8.8,5.5c-2.9,1.5-5.9,2.5-9.1,2.5c-0.1,0-0.2,0-0.3,0c-1.6,0-3.2-0.2-4.7-0.7
			c-3.1-0.9-6.1-2.3-9-4.2s-5.6-3.7-8-5.4c-1.2-0.8-2.4-1.5-3.5-2.2c-2.3-1.3-4.5-2.2-6.4-2.2l0,0c-2,0-4,0.9-6.2,2.1
			c-2.2,1.3-4.5,2.9-7,4.6c-2.9,2-5.9,3.9-8.8,5.5l-6.5-9.6c1.1-0.4,2.3-1,3.5-1.6c1.1-0.7,2.3-1.4,3.5-2.2c2.4-1.7,5.1-3.5,8-5.4
			s5.9-3.3,9-4.2c1.5-0.5,3.1-0.7,4.7-0.7c0.1,0,0.3,0,0.4,0c3.2,0,6.2,1,9.1,2.5c2.9,1.5,5.9,3.5,8.8,5.5c2.4,1.7,4.7,3.3,7,4.6
			C148.8,51,150.9,51.9,152.9,51.9"/>
		<g>
			<g>
				<path class="st3" d="M302.4,167c-19.8,0-84-9-133.2-58.2C123.8,63.4,37.3,75.4,36.4,75.6l-1.6-11.1c0.9-0.1,23.4-3.4,52.1-0.6
					c38.4,3.7,69.6,16.5,90.2,37c45.9,45.9,109.7,56.3,127.8,54.8l0.9,11.1C304.8,166.9,303.7,167,302.4,167z"/>
			</g>
			<g>
				<path class="st3" d="M178.4,111.3l-6.5-9.1c1.5-1.1,37.8-27,81.4-35.1c19.8-3.7,55.4-7.2,72.6-3.3l-2.5,10.9
					c-15.5-3.5-49.7,0-68,3.4C214.1,85.9,178.7,111.1,178.4,111.3z"/>
			</g>
		</g>
	</g>
</g>
</svg>
