<?xml version="1.0" encoding="UTF-8"?><svg id="Layer_2" xmlns="http://www.w3.org/2000/svg" width="1324.49" height="340.38" viewBox="0 0 1324.49 340.38"><g id="Layer_1-2"><g><g><path d="M601.98,112.26V51.29h39.22v8.21h-29.43v17.73h26.73v8.21h-26.73v26.81h-9.78Z"/><path d="M682.42,104.57h-.44c-1.92,4.72-5.59,8.73-13.01,8.73-9.08,0-15.2-6.2-15.2-17.12v-29h9.52v27.6c0,7.16,3.23,10.74,9.35,10.74,4.89,0,9.78-2.53,9.78-7.77v-30.57h9.52v45.07h-9.52v-7.69Z"/><path d="M706.61,112.26v-45.07h9.52v7.69h.44c1.92-4.72,5.59-8.73,13.01-8.73,9.08,0,15.2,6.2,15.2,17.12v29h-9.52v-27.6c0-7.16-3.23-10.74-9.35-10.74-4.89,0-9.78,2.53-9.78,7.77v30.57h-9.52Z"/><path d="M787.65,104.57h-.52c-2.62,5.42-6.99,8.73-13.62,8.73-10.57,0-17.38-8.12-17.38-23.58s6.81-23.58,17.38-23.58c6.64,0,11,3.32,13.62,8.73h.52v-27.25h9.52V112.26h-9.52v-7.69Zm0-7.34v-15.02c0-5.5-4.72-8.3-10.22-8.3-7.16,0-11.27,4.8-11.27,12.14v7.34c0,7.34,4.1,12.14,11.27,12.14,5.5,0,10.22-2.79,10.22-8.3Z"/><path d="M847.04,112.26c-5.42,0-8.12-3.06-8.65-7.6h-.44c-1.75,5.42-6.46,8.65-13.54,8.65-9.17,0-15.11-5.15-15.11-13.62s6.38-13.45,19.74-13.45h8.65v-3.49c0-6.03-3.23-9.17-9.69-9.17-5.76,0-9.17,2.45-11.62,6.2l-5.68-4.63c2.53-4.89,8.65-9,18.17-9,11.35,0,18.34,5.68,18.34,15.98v22.62h5.68v7.51h-5.85Zm-9.35-13.45v-6.55h-8.47c-6.99,0-10.31,2.18-10.31,6.2v1.75c0,4.02,3.14,6.11,8.21,6.11,6.11,0,10.57-3.06,10.57-7.51Z"/><path d="M901.8,76.8l-7.42,4.02c-1.57-4.19-4.89-6.81-10.13-6.81-7.16,0-11.35,4.8-11.35,11.97v7.51c0,7.07,4.1,11.97,11.53,11.97,5.59,0,9-2.79,11.09-7.16l6.99,4.28c-2.79,6.2-8.38,10.48-17.38,10.74l-.87,4.02,.35,.35c1.22-.35,2.53-.61,3.76-.61,3.41,0,6.11,1.92,6.11,5.94,0,5.33-4.98,7.51-10.48,7.51s-8.21-2.01-9.52-3.67l3.58-4.1c1.05,1.31,2.88,2.45,5.5,2.45,2.18,0,3.84-.79,3.84-2.53,0-1.4-1.05-2.88-6.2-3.49l-2.18-.26,1.22-5.94c-10.92-1.66-17.29-10.39-17.29-23.23,0-14.41,8.04-23.58,21.31-23.58,9.26,0,14.76,4.37,17.56,10.66Z"/><path d="M951.84,112.26c-5.42,0-8.12-3.06-8.65-7.6h-.44c-1.75,5.42-6.46,8.65-13.54,8.65-9.17,0-15.11-5.15-15.11-13.62s6.38-13.45,19.74-13.45h8.65v-3.49c0-6.03-3.23-9.17-9.69-9.17-5.76,0-9.17,2.45-11.62,6.2l-5.68-4.63c2.53-4.89,8.65-9,18.17-9,11.35,0,18.34,5.68,18.34,15.98v22.62h5.68v7.51h-5.85Zm-18.25-54.76c-2.62-1.31-4.63-2.01-6.46-2.01s-3.32,.79-5.07,2.27l-3.58-4.54c1.75-2.71,4.72-4.98,9-4.98,2.88,0,4.89,1.05,6.81,2.01,2.62,1.31,4.63,2.01,6.46,2.01s3.32-.79,5.07-2.27l3.58,4.54c-1.75,2.71-4.72,4.98-9,4.98-2.88,0-4.89-1.05-6.81-2.01Zm8.91,41.31v-6.55h-8.47c-6.99,0-10.31,2.18-10.31,6.2v1.75c0,4.02,3.14,6.11,8.21,6.11,6.11,0,10.57-3.06,10.57-7.51Z"/><path d="M966.07,89.72c0-14.41,8.12-23.58,21.4-23.58s21.4,9.17,21.4,23.58-8.12,23.58-21.4,23.58-21.4-9.17-21.4-23.58Zm32.84,3.41v-6.81c0-8.38-4.54-12.66-11.44-12.66s-11.44,4.28-11.44,12.66v6.81c0,8.38,4.54,12.66,11.44,12.66s11.44-4.28,11.44-12.66Z"/><path d="M601.37,171.99h9.52v7.69h.52c2.62-5.42,6.99-8.73,13.62-8.73,10.57,0,17.38,8.12,17.38,23.58s-6.81,23.58-17.38,23.58c-6.64,0-11-3.32-13.62-8.73h-.52v25.15h-9.52v-62.54Zm31.01,26.2v-7.34c0-7.34-4.1-12.14-11.27-12.14-5.5,0-10.22,2.79-10.22,8.3v15.02c0,5.5,4.72,8.3,10.22,8.3,7.16,0,11.27-4.8,11.27-12.14Z"/><path d="M689.84,217.06c-5.42,0-8.12-3.06-8.65-7.6h-.44c-1.75,5.42-6.46,8.65-13.54,8.65-9.17,0-15.11-5.15-15.11-13.63s6.38-13.45,19.74-13.45h8.65v-3.49c0-6.03-3.23-9.17-9.69-9.17-5.76,0-9.17,2.45-11.62,6.2l-5.68-4.63c2.53-4.89,8.65-9,18.17-9,11.35,0,18.34,5.68,18.34,15.98v22.62h5.68v7.51h-5.85Zm-9.35-13.45v-6.55h-8.47c-6.99,0-10.31,2.18-10.31,6.2v1.75c0,4.02,3.14,6.11,8.21,6.11,6.11,0,10.57-3.06,10.57-7.51Z"/><path d="M705.91,209.37h11.97v-29.7h-11.97v-7.69h21.49v11.97h.52c1.75-6.29,5.68-11.97,14.85-11.97h5.42v9.08h-8.91c-7.77,0-11.88,5.15-11.88,11.44v16.86h16.33v7.69h-37.82v-7.69Z"/><path d="M794.64,217.06c-5.42,0-8.12-3.06-8.65-7.6h-.44c-1.75,5.42-6.46,8.65-13.54,8.65-9.17,0-15.11-5.15-15.11-13.63s6.38-13.45,19.74-13.45h8.65v-3.49c0-6.03-3.23-9.17-9.69-9.17-5.76,0-9.17,2.45-11.62,6.2l-5.68-4.63c2.53-4.89,8.65-9,18.17-9,11.35,0,18.34,5.68,18.34,15.98v22.62h5.68v7.51h-5.85Zm-9.35-13.45v-6.55h-8.47c-6.99,0-10.31,2.18-10.31,6.2v1.75c0,4.02,3.14,6.11,8.21,6.11,6.11,0,10.57-3.06,10.57-7.51Z"/><path d="M899.44,217.06c-5.42,0-8.12-3.06-8.65-7.6h-.44c-1.75,5.42-6.46,8.65-13.54,8.65-9.17,0-15.11-5.15-15.11-13.63s6.38-13.45,19.74-13.45h8.65v-3.49c0-6.03-3.23-9.17-9.69-9.17-5.76,0-9.17,2.45-11.62,6.2l-5.68-4.63c2.53-4.89,8.65-9,18.17-9,11.35,0,18.34,5.68,18.34,15.98v22.62h5.68v7.51h-5.85Zm-9.35-13.45v-6.55h-8.47c-6.99,0-10.31,2.18-10.31,6.2v1.75c0,4.02,3.14,6.11,8.21,6.11,6.11,0,10.57-3.06,10.57-7.51Z"/><path d="M966.33,186.58c0-20.18,7.42-31.53,22.88-31.53,11.79,0,17.21,6.81,20,15.11l-8.82,2.97c-1.83-5.59-4.37-9.96-11.27-9.96-8.65,0-12.4,7.07-12.4,18.25v10.31c0,11.18,3.76,18.25,12.4,18.25,6.9,0,9.43-4.37,11.27-9.96l8.82,2.97c-2.79,8.3-8.21,15.11-20,15.11-15.46,0-22.88-11.35-22.88-31.53Z"/><path d="M1022.49,209.37h15.37v-29.7h-15.37v-7.69h24.89v37.38h14.41v7.69h-39.3v-7.69Zm13.63-50.75v-1.83c0-2.88,1.75-5.15,6.46-5.15s6.55,2.27,6.55,5.15v1.83c0,2.88-1.75,5.15-6.46,5.15s-6.55-2.27-6.55-5.15Z"/><path d="M1071.31,194.61c0-14.5,8.38-23.67,21.22-23.67s20.7,9.08,20.7,22.36v3.58h-32.32v1.48c0,7.07,4.72,12.05,12.49,12.05,5.76,0,9.96-2.71,12.49-6.9l5.94,5.24c-3.06,5.24-9.35,9.35-18.6,9.35-13.8,0-21.92-9.17-21.92-23.5Zm25.85-45.16l10.48,13.1-5.07,3.67-10.31-10.13-10.39,10.13-4.8-3.67,10.48-13.1h9.61Zm-16.25,40.7v.61h22.62v-.87c0-7.07-4.37-11.7-11-11.7s-11.62,4.98-11.62,11.97Z"/><path d="M1125.81,217.06v-45.07h9.52v7.69h.44c1.92-4.72,5.59-8.73,13.01-8.73,9.08,0,15.2,6.2,15.2,17.12v29h-9.52v-27.6c0-7.16-3.23-10.74-9.35-10.74-4.89,0-9.78,2.53-9.78,7.77v30.57h-9.52Z"/><path d="M1177.33,194.53c0-14.41,8.04-23.58,21.31-23.58,9.26,0,14.76,4.37,17.56,10.66l-7.42,4.02c-1.57-4.19-4.89-6.81-10.13-6.81-7.16,0-11.35,4.8-11.35,11.97v7.51c0,7.07,4.1,11.97,11.53,11.97,5.59,0,9-2.79,11.09-7.16l6.99,4.28c-2.88,6.29-8.73,10.74-18.17,10.74-13.45,0-21.4-9.17-21.4-23.58Z"/><path d="M1232.09,209.37h15.37v-29.7h-15.37v-7.69h24.89v37.38h14.41v7.69h-39.3v-7.69Zm13.63-50.75v-1.83c0-2.88,1.75-5.15,6.46-5.15s6.55,2.27,6.55,5.15v1.83c0,2.88-1.75,5.15-6.46,5.15s-6.55-2.27-6.55-5.15Z"/><path d="M1318.64,217.06c-5.42,0-8.12-3.06-8.65-7.6h-.44c-1.75,5.42-6.46,8.65-13.54,8.65-9.17,0-15.11-5.15-15.11-13.63s6.38-13.45,19.74-13.45h8.65v-3.49c0-6.03-3.23-9.17-9.69-9.17-5.76,0-9.17,2.45-11.62,6.2l-5.68-4.63c2.53-4.89,8.65-9,18.17-9,11.35,0,18.34,5.68,18.34,15.98v22.62h5.68v7.51h-5.85Zm-9.35-13.45v-6.55h-8.47c-6.99,0-10.31,2.18-10.31,6.2v1.75c0,4.02,3.14,6.11,8.21,6.11,6.11,0,10.57-3.06,10.57-7.51Z"/><path d="M599.71,299.41c0-14.5,8.38-23.67,21.22-23.67s20.7,9.08,20.7,22.36v3.58h-32.32v1.48c0,7.07,4.72,12.05,12.49,12.05,5.76,0,9.96-2.71,12.49-6.9l5.94,5.24c-3.06,5.24-9.35,9.35-18.6,9.35-13.8,0-21.92-9.17-21.92-23.5Zm9.61-4.45v.61h22.62v-.87c0-7.07-4.37-11.7-11-11.7s-11.62,4.98-11.62,11.97Z"/><path d="M742.24,321.86c-5.42,0-8.12-3.06-8.65-7.6h-.44c-1.75,5.42-6.46,8.65-13.54,8.65-9.17,0-15.11-5.15-15.11-13.63s6.38-13.45,19.74-13.45h8.65v-3.49c0-6.03-3.23-9.17-9.69-9.17-5.76,0-9.17,2.45-11.62,6.2l-5.68-4.63c2.53-4.89,8.65-9,18.17-9,11.35,0,18.34,5.68,18.34,15.98v22.62h5.68v7.51h-5.85Zm-9.35-13.45v-6.55h-8.47c-6.99,0-10.31,2.18-10.31,6.2v1.75c0,4.02,3.14,6.11,8.21,6.11,6.11,0,10.57-3.06,10.57-7.51Z"/><path d="M835.16,269.11v52.75h-9.78v-52.75h-19.13v-8.21h48.04v8.21h-19.13Z"/><path d="M861.71,299.41c0-14.5,8.38-23.67,21.22-23.67s20.7,9.08,20.7,22.36v3.58h-32.32v1.48c0,7.07,4.72,12.05,12.49,12.05,5.76,0,9.96-2.71,12.49-6.9l5.94,5.24c-3.06,5.24-9.35,9.35-18.6,9.35-13.8,0-21.92-9.17-21.92-23.5Zm9.61-4.45v.61h22.62v-.87c0-7.07-4.37-11.7-11-11.7s-11.62,4.98-11.62,11.97Z"/><path d="M915.33,299.33c0-14.41,8.04-23.58,21.31-23.58,9.26,0,14.76,4.37,17.56,10.66l-7.42,4.02c-1.57-4.19-4.89-6.81-10.13-6.81-7.16,0-11.35,4.8-11.35,11.97v7.51c0,7.07,4.11,11.97,11.53,11.97,5.59,0,9-2.79,11.09-7.16l6.99,4.28c-2.88,6.29-8.73,10.74-18.17,10.74-13.45,0-21.4-9.17-21.4-23.58Z"/><path d="M968.61,321.86v-45.07h9.52v7.69h.44c1.92-4.72,5.59-8.73,13.01-8.73,9.08,0,15.2,6.2,15.2,17.12v29h-9.52v-27.6c0-7.16-3.23-10.74-9.35-10.74-4.89,0-9.78,2.53-9.78,7.77v30.57h-9.52Z"/><path d="M1018.47,299.33c0-14.41,8.12-23.58,21.4-23.58s21.4,9.17,21.4,23.58-8.12,23.58-21.4,23.58-21.4-9.17-21.4-23.58Zm32.84,3.41v-6.81c0-8.38-4.54-12.66-11.44-12.66s-11.44,4.28-11.44,12.66v6.81c0,8.38,4.54,12.66,11.44,12.66s11.44-4.28,11.44-12.66Z"/><path d="M1072.62,314.17h14.94v-49.26h-14.94v-7.69h24.46v56.95h14.94v7.69h-39.39v-7.69Z"/><path d="M1123.27,299.33c0-14.41,8.12-23.58,21.4-23.58s21.4,9.17,21.4,23.58-8.12,23.58-21.4,23.58-21.4-9.17-21.4-23.58Zm32.84,3.41v-6.81c0-8.38-4.54-12.66-11.44-12.66s-11.44,4.28-11.44,12.66v6.81c0,8.38,4.54,12.66,11.44,12.66s11.44-4.28,11.44-12.66Z"/><path d="M1196.98,340.38c-15.55,0-20.96-4.1-20.96-10.83,0-4.89,2.88-7.42,7.86-8.73v-.87c-3.06-1.14-4.98-3.14-4.98-6.55,0-4.45,3.41-6.46,8.12-7.6v-.44c-5.42-2.53-8.65-7.34-8.65-13.8,0-9.61,7.25-15.81,18.34-15.81,3.14,0,6.03,.52,8.47,1.48v-1.48c0-3.49,2.01-6.11,6.03-6.11h8.21v7.51h-10.48v2.1c3.93,2.71,6.11,6.9,6.11,12.31,0,9.61-7.25,15.72-18.34,15.72-2.01,0-3.84-.17-5.59-.52-2.1,.52-4.72,1.92-4.72,4.37,0,2.79,3.06,3.14,6.99,3.14h10.13c12.14,0,17.12,5.07,17.12,12.49,0,9.26-7.77,13.62-23.67,13.62Zm6.29-17.99h-15.63c-2.18,1.05-3.32,2.71-3.32,5.07,0,3.41,2.62,6.2,9.26,6.2h7.07c7.16,0,11.09-2.18,11.09-6.29,0-3.06-2.1-4.98-8.47-4.98Zm2.45-29.7v-2.36c0-4.8-2.88-8.04-9-8.04s-9,3.23-9,8.04v2.36c0,4.8,2.88,8.04,9,8.04s9-3.23,9-8.04Z"/><path d="M1232.09,314.17h15.37v-29.7h-15.37v-7.69h24.89v37.38h14.41v7.69h-39.3v-7.69Zm13.63-50.75v-1.83c0-2.88,1.75-5.15,6.46-5.15s6.55,2.27,6.55,5.15v1.83c0,2.88-1.75,5.15-6.46,5.15s-6.55-2.27-6.55-5.15Z"/><path d="M1318.64,321.86c-5.42,0-8.12-3.06-8.65-7.6h-.44c-1.75,5.42-6.46,8.65-13.54,8.65-9.17,0-15.11-5.15-15.11-13.63s6.38-13.45,19.74-13.45h8.65v-3.49c0-6.03-3.23-9.17-9.69-9.17-5.76,0-9.17,2.45-11.62,6.2l-5.68-4.63c2.53-4.89,8.65-9,18.17-9,11.35,0,18.34,5.68,18.34,15.98v22.62h5.68v7.51h-5.85Zm-9.35-13.45v-6.55h-8.47c-6.99,0-10.31,2.18-10.31,6.2v1.75c0,4.02,3.14,6.11,8.21,6.11,6.11,0,10.57-3.06,10.57-7.51Z"/></g><g><path d="M88.5,135.66h67.48v29.02H88.5v129.32h67.48v29.02H0v-29.02H55.61V164.68H0v-29.02H43.63c6.62,0,11.98-5.37,11.98-11.98v-18.25c0-7.42,2.95-14.53,8.19-19.77l31.18-31.18c5.24-5.24,12.36-8.03,19.77-8.03h41.23v28.87H88.5v60.35Z"/><path d="M247.97,46.44h70.48v29.02h-97.23V216.98h97.23v29.02h-70.48c-7.42,0-14.53-2.95-19.77-8.19l-31.68-31.68c-5.24-5.24-8.19-12.36-8.19-19.77V106.08c0-7.42,2.95-14.53,8.19-19.77l31.68-31.68c5.24-5.24,12.36-8.19,19.77-8.19Z"/><path d="M403.66,189.06V75.46h-54.68v-29.02h42.69c6.62,0,11.98-5.37,11.98-11.98V0h32.89V46.44h70.92v29.02h-70.92V216.98h70.92v29.02h-50.49c-8.06,0-15.73-3.48-21.04-9.55l-25.36-28.98c-4.46-5.1-6.92-11.64-6.92-18.41Z"/><rect x="188.33" y="294.01" width="319.15" height="29.02"/></g></g></g></svg>