<?xml version="1.0" encoding="UTF-8"?>
<svg xmlns="http://www.w3.org/2000/svg" id="Layer_2" viewBox="0 0 498.1 192.62">
  <g id="Layer_1-2">
    <g>
      <path d="M211.13,27.44h-15.89v-9.33h42.53v9.33h-15.89v46.69h-10.76V27.44Z" style="fill:#485156;"></path>
      <path d="M245.04,18.1h34.85v9.33h-24.09v13.55h22.21v9.34h-22.21v14.47h24.09v9.34h-34.85V18.1Zm11.87-9.34c4.01-2.44,7.94-4.88,11.36-7.48l4.01,6.22c-3.84,2.78-7,4.62-11.62,6.98l-3.76-5.72Z" style="fill:#485156;"></path>
      <path d="M288.42,33.5c0-10.26,6.06-16.24,20.24-16.24,5.3,0,10.76,.67,15.46,1.85l-1.2,9.17c-4.61-.84-10-1.43-13.92-1.43-7.43,0-9.82,2.52-9.82,8.5v21.54c0,5.97,2.39,8.5,9.82,8.5,3.93,0,9.31-.59,13.92-1.43l1.2,9.17c-4.7,1.18-10.16,1.85-15.46,1.85-14.18,0-20.24-5.97-20.24-16.24v-25.24Z" style="fill:#485156;"></path>
      <path d="M343.6,31.65v42.48h-10.51V18.1h14.35l21.61,42.56V18.1h10.51v56.02h-14.35l-21.61-42.48Z" style="fill:#485156;"></path>
      <path d="M402.27,74.13h-10.76V18.1h10.76v56.02Z" style="fill:#485156;"></path>
      <path d="M412.95,33.5c0-10.26,6.06-16.24,20.24-16.24,5.29,0,10.76,.67,15.46,1.85l-1.2,9.17c-4.61-.84-9.99-1.43-13.92-1.43-7.43,0-9.82,2.52-9.82,8.5v21.54c0,5.97,2.39,8.5,9.82,8.5,3.93,0,9.31-.59,13.92-1.43l1.2,9.17c-4.7,1.18-10.16,1.85-15.46,1.85-14.18,0-20.24-5.97-20.24-16.24v-25.24Z" style="fill:#485156;"></path>
      <path d="M498.1,57.72c0,9.34-5.47,17.25-21.53,17.25s-21.52-7.91-21.52-17.25v-23.22c0-9.34,5.47-17.25,21.52-17.25s21.53,7.91,21.53,17.25v23.22Zm-32.29-.59c0,5.3,2.73,8.5,10.76,8.5s10.76-3.2,10.76-8.5v-22.04c0-5.3-2.73-8.5-10.76-8.5s-10.76,3.2-10.76,8.5v22.04Z" style="fill:#485156;"></path>
      <path d="M215.93,140.4h25.62v4.46h-30.66v-56.03h5.04v51.57Z" style="fill:#485156;"></path>
      <path d="M258.03,144.86h-5.04v-56.03h5.04v56.03Z" style="fill:#485156;"></path>
      <path d="M288.1,145.7c-4.95,0-11.19-.84-16.06-2.69l.94-4.04c5.13,1.51,10.33,2.27,15.29,2.27,9.74,0,12.39-2.86,12.39-10.01,0-8.66-.08-9.59-12.73-12.45-13.75-3.11-15.29-5.55-15.29-16.82,0-9.17,3.42-13.96,17.68-13.96,4.95,0,10.85,.84,14.69,1.93l-.6,4.21c-4.19-.93-9.48-1.68-13.92-1.68-11.27,0-12.81,2.69-12.81,9.67,0,9.08,.26,9.51,12.21,12.45,14.95,3.7,15.8,5.8,15.8,16.41,0,9.17-3.16,14.72-17.59,14.72Z" style="fill:#485156;"></path>
      <path d="M319.27,144.86v-56.03h21.35c7.69,0,12.21,3.62,12.21,11.02v6.73c0,4.46-1.88,7.4-6.49,9.08,4.44,.59,8.28,4.21,8.28,10.43v7.32c0,7.74-5.72,11.44-13.07,11.44h-22.29Zm28.53-45.68c0-3.87-2.22-5.97-7.09-5.97h-16.4v20.78h14.69c6.24,0,8.8-3.2,8.8-7.66v-7.15Zm1.79,27.09c0-4.71-2.82-7.91-9.39-7.91h-15.89v22.12h17.34c5.38,0,7.94-2.61,7.94-7.07v-7.15Z" style="fill:#485156;"></path>
      <path d="M385.12,145.7c-14.61,0-19.9-7.07-19.9-16.66v-24.4c0-9.59,5.3-16.66,19.9-16.66s19.9,7.07,19.9,16.66v24.4c0,9.59-5.29,16.66-19.9,16.66Zm14.86-16.83v-24.06c0-7.99-3.93-12.37-14.86-12.37s-14.86,4.37-14.86,12.37v24.06c0,7.99,3.93,12.37,14.86,12.37s14.86-4.37,14.86-12.37Z" style="fill:#485156;"></path>
      <path d="M449.78,130.13h-26.48l-5.3,14.72h-4.96l19.82-56.03h7.43l19.81,56.03h-4.95l-5.38-14.72Zm-24.94-4.29h23.4l-11.7-34.15-11.7,34.15Z" style="fill:#485156;"></path>
    </g>
    <path d="M79.48,192.62S0,153.63,0,80.84V0H159.26V80.84c0,72.79-79.78,111.78-79.78,111.78Z" style="fill:#0095db; fill-rule:evenodd;"></path>
    <polygon points="122.02 60.82 115.39 60.82 115.39 110.67 101.04 110.67 101.04 60.82 94.42 60.82 94.42 50.82 122.02 50.82 122.02 60.82" style="fill:#fff;"></polygon>
    <polygon points="57.96 110.64 43.61 110.64 43.63 50.82 57.94 50.82 57.96 110.64" style="fill:#fff;"></polygon>
    <path d="M93.81,16.93c-11.87,0-21.49,6.15-21.49,18.02V126.57c0,10.05,0,15.04-7.15,15.04-6.64,0-7.22-4.96-7.22-12.29h0c0-3.96-3.21-7.16-7.17-7.16s-7.16,3.21-7.16,7.16h-.01c0,10.09,9.71,15.28,21.57,15.28s21.49-6.15,21.49-18.02V34.95c0-10.05,0-15.04,7.15-15.04,6.64,0,7.22,4.97,7.22,12.29h0c0,3.96,3.21,7.16,7.16,7.16s7.17-3.2,7.17-7.16h.01c0-10.09-9.7-15.27-21.57-15.27Z" style="fill:#fff;"></path>
  </g>
</svg>
