<?xml version="1.0" encoding="UTF-8"?>
<svg xmlns="http://www.w3.org/2000/svg" id="Layer_2" viewBox="0 0 453.7 207.8">
  <g id="Layer_1-2">
    <g>
      <path d="M291.8,207.8h26v-6.3h-19.4v-12.7h17.6v-6.3h-17.6v-10.4h19.4v-6.3h-26v42Zm-29-5.9h6.6v-35.7h12.8v-6.3h-32.3v6.3h12.8v35.7h.1Zm-52.1-18.1c0,8.9,6.2,15.5,15.2,15.5s15.3-6.5,15.3-15.5v-27.4h-6.5v27.8c0,5.1-2.4,8.8-8.7,8.8s-8.6-3.7-8.6-8.9v-27.7h-6.7v27.4Zm-28.1,12.2h6.6v-35.7h12.8v-6.3h-32.3v6.3h12.8v35.7h.1Zm-29.1-2.3h6.6v-42h-6.6v42Zm-29-2.4h6.6v-35.7h12.8v-6.3h-32.2v6.3h12.8v35.7Zm-51.2-24.6c.6,6.2,3.9,15.3,16.4,15.3,9.2,0,15.1-5.3,15.1-12.9,0-9.7-7.4-11.8-13.4-13.6-5-1.5-9.1-2.8-9.1-6.2,0-2.5,2.5-4.8,7-4.8,5.6,0,7.5,3.6,8.2,6l6.1-1.3c-1.7-7.1-7.1-11-14.3-11-8.9,0-13.4,5.4-13.4,11.1,0,7.6,6,10.3,13.7,12.2,6.3,1.6,8.7,3.6,8.7,7.6,0,4.7-3.9,6.6-8.5,6.6-8.6,0-9.7-6.6-10.1-10.1l-6.4,1.1Zm-40.6,20.4h6.6v-29.3l17.6,29.3h5.3v-42h-6.4v28.6l-17.4-28.6h-5.7v42Zm-19.8,7.8h6.6v-42h-6.6v42Z"></path>
      <path d="M422.2,72.7c.6,6.2,3.9,15.3,16.4,15.3,9.2,0,15.1-5.3,15.1-12.9,0-9.7-7.4-11.8-13.4-13.6-5-1.5-9.1-2.8-9.1-6.2,0-2.5,2.5-4.8,7-4.8,5.6,0,7.5,3.6,8.2,6l6.1-1.3c-1.7-7.1-7.1-11-14.3-11-8.9,0-13.4,5.4-13.4,11.1,0,7.6,6,10.3,13.7,12.2,6.3,1.6,8.7,3.6,8.7,7.6,0,4.7-3.9,6.6-8.5,6.6-8.6,0-9.7-6.6-10.1-10.1l-6.4,1.1Zm-35.3,31.4h26v-6.3h-19.4v-12.7h17.6v-6.3h-17.6v-10.4h19.4v-6.3h-26v42Zm-19.8,10h6.6v-42h-6.6v42Zm-30.9-5.5h12.3v1c0,5.1-2.4,8.8-8.6,8.8s-9.2-3.7-9.2-15.6,3.1-15.6,9.2-15.6,8.2,3.9,8.7,8.6l6-1c-.8-8.1-6.4-14-14.7-14-9,0-15.8,6.5-15.8,21.9s6.8,21.9,15.8,21.9,15.2-6.5,15.2-15.5v-6.3h-18.9v5.8Zm-38.8,17.2c9.1,0,15.9-6.5,15.9-21.9s-6.8-21.9-15.9-21.9-15.8,6.5-15.8,21.9c-.1,15.4,6.8,21.9,15.8,21.9m0-6.3c-6.2,0-9.2-3.8-9.2-15.6s3.1-15.6,9.2-15.6,9.3,3.7,9.3,15.6-3,15.6-9.3,15.6m-49.1,6.6h24.8v-6.3h-18.2v-35.7h-6.6v42h0Zm-27.9,3.2c9.1,0,15.9-6.5,15.9-21.9s-6.8-21.9-15.9-21.9-15.8,6.5-15.8,21.9c0,15.4,6.8,21.9,15.8,21.9m0-6.3c-6.2,0-9.2-3.8-9.2-15.6s3.1-15.6,9.2-15.6,9.3,3.7,9.3,15.6-3,15.6-9.3,15.6m-57.3,7.8h6.6v-29.3l17.6,29.3h5.3v-42h-6.4v28.6l-17.4-28.6h-5.7v42h0Zm-43.4,1.2h6.6v-19h17v19h6.6v-42h-6.6v16.7h-17v-16.7h-6.6v42Zm-17.1-14.1c-.5,4.8-2.9,8.7-8.7,8.7-6.2,0-9.2-3.8-9.2-15.6s3.1-15.6,9.2-15.6,8.2,3.9,8.7,8.7l6-1.1c-.8-8.1-6.4-13.9-14.7-13.9-9,0-15.8,6.5-15.8,21.9s6.8,21.9,15.8,21.9c8.3,0,13.9-5.8,14.7-13.9l-6-1.1Zm-60.7,8.2h26v-6.3h-19.4v-12.7h17.6v-6.3h-17.6v-10.4h19.4v-6.3h-26v42Zm-29.1-7h6.6v-35.7h12.8v-6.3H0v6.3H12.8v35.7Z"></path>
      <path d="M367.8,42h26v-6.3h-19.4v-12.7h17.6v-6.3h-17.6V6.3h19.4V0h-26V42Zm-28.8,10.6h6.3l13.5-42h-6.9l-9.7,31.6-9.6-31.6h-6.9l13.3,42Zm-28.9,4.7h6.6V15.3h-6.6V57.3Zm-29.1,5.9h6.6V27.5h12.8v-6.3h-32.3v6.3h12.8V63.2h.1Zm-26.3-11.8c-.5,4.8-2.9,8.7-8.7,8.7-6.2,0-9.2-3.8-9.2-15.6s3.1-15.6,9.2-15.6,8.2,3.9,8.7,8.7l6-1.1c-.8-8.1-6.4-13.9-14.7-13.9-9,0-15.8,6.5-15.8,21.9s6.8,21.9,15.8,21.9c8.3,0,13.9-5.8,14.7-13.9l-6-1.1Zm-55.9,1.5l5.8-17.6,5.9,17.6h-11.7Zm-11.7,15h6.7l3.1-9.3h15.4l3,9.3h6.8l-14.6-42h-5.8l-14.6,42Zm-29.4-21.2v-12.2h8.2c2.9,0,5.9,2.1,5.9,6.2,0,5.2-4.1,5.9-5.9,5.9h-8.2v.1Zm-6.6,23.5h6.6v-17.3h6.6l8.2,17.3h7.1l-8.6-18.2s7.4-2.8,7.4-11.4c0-7.1-5.8-12.4-12.5-12.4h-14.8v42Zm-37.4,2.4h26v-6.3h-19.4v-12.7h17.6v-6.3h-17.6v-10.4h19.4v-6.3h-26v42Zm-29,1.2h6.6V38.1h12.8v-6.3h-32.3v6.3h12.9v35.7Zm-52-3.6h6.6v-29.3l17.6,29.3h5.3V28.2h-6.4v28.6l-17.4-28.6h-5.7v42Zm-19.8-7h6.6V21.2h-6.6V63.2Z"></path>
    </g>
  </g>
</svg>
